<svg width="60" height="510" viewBox="0 0 60 510" fill="none" xmlns="http://www.w3.org/2000/svg">
<path d="M26.5698 3.4302C25.6155 2.47587 24.4672 1.99913 23.1251 2H6.87492C5.53191 2 4.38367 2.47674 3.4302 3.4302C2.47587 4.38454 1.99913 5.53278 2 6.87492V23.1251C2 24.4681 2.47674 25.6163 3.4302 26.5698C4.38454 27.5241 5.53278 28.0009 6.87492 28H10.6671C10.9144 28 11.1005 27.9913 11.2254 27.974C11.3709 27.9452 11.5022 27.8676 11.5976 27.754C11.7216 27.6239 11.7837 27.4352 11.7837 27.1879L11.7746 26.0362C11.7694 25.3023 11.7668 24.721 11.7668 24.2924L11.3763 24.3601C11.1291 24.4052 10.8163 24.4251 10.4381 24.4199C10.0434 24.4124 9.64992 24.3728 9.26163 24.3015C8.84792 24.2265 8.45855 24.0523 8.12683 23.794C7.77865 23.5307 7.51899 23.1675 7.38245 22.7529L7.21327 22.3625C7.07013 22.0548 6.89103 21.7652 6.67971 21.4997C6.43679 21.1839 6.19127 20.9696 5.94314 20.8568L5.82602 20.7722C5.74469 20.7133 5.67045 20.6452 5.60479 20.5692C5.54206 20.4986 5.4907 20.4187 5.45253 20.3323C5.41869 20.2525 5.44689 20.1875 5.53711 20.1371C5.62734 20.0851 5.79132 20.0595 6.02903 20.0604L6.36739 20.1124C6.59296 20.1567 6.87188 20.2916 7.20417 20.5171C7.54 20.7461 7.82053 21.0471 8.02533 21.3982C8.2856 21.8597 8.5988 22.2124 8.96491 22.4562C9.3319 22.6991 9.70149 22.8206 10.0737 22.8206C10.4459 22.8206 10.7677 22.7924 11.0393 22.736C11.3023 22.6815 11.5578 22.5958 11.8006 22.4809C11.9021 21.7252 12.1784 21.144 12.6296 20.7371C12.0445 20.6793 11.4646 20.5775 10.8948 20.4326C10.3388 20.28 9.80413 20.0584 9.30327 19.7728C8.77914 19.4874 8.31619 19.1018 7.94074 18.638C7.57983 18.1868 7.28355 17.5947 7.05191 16.8616C6.82113 16.1276 6.70574 15.2809 6.70574 14.3213C6.70574 12.9566 7.15124 11.7941 8.04224 10.8337C7.62581 9.80733 7.66528 8.65692 8.16067 7.38245C8.48861 7.28008 8.97402 7.35599 9.6169 7.61019C10.2598 7.86439 10.7309 8.08129 11.0302 8.26088C11.3295 8.44307 11.5694 8.59576 11.7498 8.71896C12.8077 8.42399 13.9011 8.27598 14.9993 8.27909C16.1168 8.27909 17.2004 8.42571 18.2502 8.71896L18.893 8.31293C19.3875 8.01605 19.9091 7.7668 20.4508 7.56855C21.0485 7.34298 21.5057 7.28095 21.8224 7.38245C22.3299 8.65779 22.3746 9.80863 21.9565 10.835C22.8483 11.7937 23.2943 12.9562 23.2943 14.3226C23.2943 15.2822 23.1784 16.1311 22.9468 16.8694C22.716 17.6086 22.4171 18.2011 22.0502 18.6471C21.667 19.1039 21.2023 19.4856 20.6798 19.7728C20.1332 20.0773 19.6027 20.2972 19.0882 20.4326C18.5185 20.5779 17.9386 20.6801 17.3535 20.7384C17.9391 21.2459 18.2324 22.0467 18.2332 23.1407V27.1879C18.2332 27.3788 18.2614 27.5337 18.3178 27.6525C18.3442 27.7096 18.3817 27.7608 18.4282 27.803C18.4747 27.8453 18.5292 27.8777 18.5885 27.8985C18.7126 27.9436 18.8228 27.9714 18.9191 27.9818C19.0154 27.9939 19.1533 27.9996 19.3329 27.9987H23.1251C24.4681 27.9987 25.6163 27.522 26.5698 26.5685C27.5233 25.615 28 24.4668 28 23.1238V6.87492C28 5.53191 27.5241 4.38367 26.5698 3.4302Z" fill="black"/>
<path d="M46.3364 2C47.7988 2.0039 48.5411 2.0117 49.182 2.0299L49.4342 2.039C49.7253 2.0494 50.0126 2.0624 50.3597 2.078C51.7428 2.143 52.6866 2.36139 53.5147 2.68248C54.3726 3.01268 55.0954 3.45986 55.8181 4.18135C56.4794 4.83098 56.9909 5.61713 57.317 6.48489C57.638 7.31297 57.8564 8.25675 57.9214 9.64121C57.937 9.98701 57.95 10.2743 57.9604 10.5668L57.9682 10.819C57.9877 11.4586 57.9955 12.2009 57.9981 13.6633L57.9994 14.6331V16.3361C58.0026 17.2843 57.9926 18.2325 57.9695 19.1804L57.9617 19.4326C57.9513 19.7251 57.9383 20.0124 57.9227 20.3582C57.8577 21.7426 57.6367 22.6851 57.317 23.5145C56.9909 24.3822 56.4794 25.1684 55.8181 25.818C55.1685 26.4793 54.3824 26.9908 53.5147 27.3169C52.6866 27.638 51.7428 27.8564 50.3597 27.9214L49.4342 27.9604L49.182 27.9682C48.5411 27.9864 47.7988 27.9955 46.3364 27.9981L45.3667 27.9994H43.665C42.7164 28.0027 41.7678 27.9927 40.8195 27.9695L40.5673 27.9617C40.2587 27.95 39.9502 27.9366 39.6418 27.9214C38.2586 27.8564 37.3149 27.638 36.4855 27.3169C35.6182 26.9907 34.8326 26.4792 34.1833 25.818C33.5216 25.1685 33.0096 24.3824 32.6832 23.5145C32.3621 22.6864 32.1437 21.7426 32.0787 20.3582L32.0397 19.4326L32.0332 19.1804C32.0093 18.2325 31.9984 17.2843 32.0007 16.3361V13.6633C31.9971 12.7151 32.0067 11.7669 32.0293 10.819L32.0384 10.5668C32.0488 10.2743 32.0618 9.98701 32.0774 9.64121C32.1424 8.25675 32.3608 7.31427 32.6819 6.48489C33.0091 5.61677 33.522 4.8306 34.1846 4.18135C34.8335 3.52038 35.6187 3.00887 36.4855 2.68248C37.3149 2.36139 38.2573 2.143 39.6418 2.078C39.9875 2.0624 40.2761 2.0494 40.5673 2.039L40.8195 2.0312C41.7674 2.0081 42.7156 1.99813 43.6638 2.0013L46.3364 2ZM45.0001 8.49984C43.2763 8.49984 41.623 9.18465 40.4041 10.4036C39.1852 11.6226 38.5004 13.2758 38.5004 14.9997C38.5004 16.7235 39.1852 18.3768 40.4041 19.5958C41.623 20.8147 43.2763 21.4995 45.0001 21.4995C46.7239 21.4995 48.3771 20.8147 49.596 19.5958C50.815 18.3768 51.4998 16.7235 51.4998 14.9997C51.4998 13.2758 50.815 11.6226 49.596 10.4036C48.3771 9.18465 46.7239 8.49984 45.0001 8.49984ZM45.0001 11.0998C45.5122 11.0997 46.0193 11.2005 46.4925 11.3964C46.9657 11.5923 47.3957 11.8795 47.7579 12.2416C48.12 12.6037 48.4074 13.0335 48.6034 13.5067C48.7995 13.9798 48.9004 14.4869 48.9005 14.999C48.9006 15.5112 48.7998 16.0183 48.6039 16.4915C48.408 16.9647 48.1208 17.3947 47.7588 17.7569C47.3967 18.1191 46.9668 18.4064 46.4937 18.6025C46.0206 18.7985 45.5135 18.8995 45.0014 18.8996C43.9671 18.8996 42.9752 18.4887 42.2438 17.7573C41.5125 17.026 41.1016 16.034 41.1016 14.9997C41.1016 13.9654 41.5125 12.9734 42.2438 12.242C42.9752 11.5107 43.9671 11.0998 45.0014 11.0998M51.826 6.54989C51.3951 6.54989 50.9818 6.72109 50.677 7.02583C50.3723 7.33057 50.2011 7.74388 50.2011 8.17485C50.2011 8.60582 50.3723 9.01913 50.677 9.32387C50.9818 9.62861 51.3951 9.79981 51.826 9.79981C52.257 9.79981 52.6703 9.62861 52.975 9.32387C53.2798 9.01913 53.451 8.60582 53.451 8.17485C53.451 7.74388 53.2798 7.33057 52.975 7.02583C52.6703 6.72109 52.257 6.54989 51.826 6.54989Z" fill="black"/>
<path fill-rule="evenodd" clip-rule="evenodd" d="M15 34C13.5597 34 11.88 34.0392 10.2426 34.0925L10.1761 34.0953C8.50967 34.1499 7.16493 34.1934 6.10558 34.3965C5.00149 34.6081 4.08484 35.0131 3.352 35.886C2.61674 36.7617 2.29628 37.8449 2.14512 39.1409C2 40.388 2 41.9685 2 43.933V46.0684C2 48.0301 2 49.6106 2.14512 50.8591C2.29507 52.1551 2.61674 53.2383 3.352 54.114C4.08484 54.9883 5.00149 55.3919 6.10558 55.6035C7.16493 55.8066 8.50967 55.8501 10.1761 55.9047L10.2426 55.9075C11.8812 55.9608 13.5597 56 15 56C16.4403 56 18.12 55.9608 19.7574 55.9075L19.8239 55.9047C21.4903 55.8501 22.8351 55.8066 23.8944 55.6035C24.9985 55.3919 25.9152 54.9869 26.648 54.114C27.3833 53.2383 27.7049 52.1551 27.8549 50.8591C28 49.612 28 48.0315 28 46.067V43.9316C28 41.9685 28 40.388 27.8549 39.1409C27.7049 37.8449 27.3833 36.7617 26.648 35.886C25.9152 35.0117 24.9985 34.6081 23.8944 34.3965C22.8351 34.1934 21.4903 34.1499 19.8227 34.0953L19.7574 34.0925C18.172 34.0367 16.5861 34.0059 15 34ZM13.6359 48.7138C13.498 48.8051 13.3418 48.8528 13.183 48.8522C13.0242 48.8516 12.8683 48.8027 12.7309 48.7103C12.5935 48.6179 12.4795 48.4854 12.4002 48.3259C12.3209 48.1665 12.2791 47.9857 12.2791 47.8017V42.1969C12.2791 42.0129 12.3209 41.8321 12.4002 41.6727C12.4795 41.5132 12.5935 41.3807 12.7309 41.2883C12.8683 41.1959 13.0242 41.147 13.183 41.1464C13.3418 41.1458 13.498 41.1935 13.6359 41.2848L17.8685 44.0871C18.0072 44.1791 18.1225 44.3119 18.2027 44.4721C18.2828 44.6322 18.3251 44.8141 18.3251 44.9993C18.3251 45.1845 18.2828 45.3664 18.2027 45.5265C18.1225 45.6867 18.0072 45.8195 17.8685 45.9115L13.6359 48.7138Z" fill="black"/>
<path d="M55.1111 32C55.8773 32 56.6121 32.3044 57.1539 32.8461C57.6956 33.3879 58 34.1227 58 34.8889V55.1111C58 55.8773 57.6956 56.6121 57.1539 57.1539C56.6121 57.6956 55.8773 58 55.1111 58H34.8889C34.1227 58 33.3879 57.6956 32.8461 57.1539C32.3044 56.6121 32 55.8773 32 55.1111V34.8889C32 34.1227 32.3044 33.3879 32.8461 32.8461C33.3879 32.3044 34.1227 32 34.8889 32H55.1111ZM54.3889 54.3889V46.7333C54.3889 45.4845 53.8928 44.2867 53.0097 43.4036C52.1266 42.5206 50.9289 42.0244 49.68 42.0244C48.4522 42.0244 47.0222 42.7756 46.3289 43.9022V42.2989H42.2989V54.3889H46.3289V47.2678C46.3289 46.1556 47.2244 45.2456 48.3367 45.2456C48.873 45.2456 49.3874 45.4586 49.7666 45.8379C50.1458 46.2171 50.3589 46.7315 50.3589 47.2678V54.3889H54.3889ZM37.6044 40.0311C38.248 40.0311 38.8653 39.7754 39.3204 39.3204C39.7754 38.8653 40.0311 38.248 40.0311 37.6044C40.0311 36.2611 38.9478 35.1633 37.6044 35.1633C36.957 35.1633 36.3361 35.4205 35.8783 35.8783C35.4205 36.3361 35.1633 36.957 35.1633 37.6044C35.1633 38.9478 36.2611 40.0311 37.6044 40.0311ZM39.6122 54.3889V42.2989H35.6111V54.3889H39.6122Z" fill="black"/>
<path d="M26.0752 62.0027C25.7541 62.0292 25.439 62.113 25.1419 62.251H25.1379C24.8529 62.3768 23.4976 63.0116 21.4371 63.9737L14.0534 67.4357C8.75518 69.9189 3.54699 72.3643 3.54699 72.3643L3.609 72.3375C3.609 72.3375 3.24992 72.4689 2.87483 72.7551C2.64258 72.9185 2.44306 73.1334 2.2887 73.3865C2.10465 73.6871 1.95662 74.147 2.01163 74.6225C2.10165 75.4265 2.56976 75.9087 2.90584 76.1748C3.24592 76.4443 3.56999 76.5701 3.56999 76.5701H3.57799L8.46212 78.4019C8.68117 79.1847 9.95046 83.8304 10.2555 84.9006C10.4356 85.5397 10.6106 85.9395 10.8297 86.2446C10.9344 86.4005 11.0607 86.5308 11.2087 86.6355C11.2856 86.6869 11.3684 86.7266 11.4548 86.7535L11.4048 86.7401C11.4198 86.7446 11.4318 86.758 11.4428 86.7624C11.4828 86.7747 11.5098 86.7791 11.5608 86.788C12.334 87.0486 12.9551 86.5141 12.9551 86.5141L12.9902 86.4829L15.8738 83.5599L20.7069 87.6878L20.817 87.7401C21.8242 88.2323 22.8444 87.9584 23.3835 87.4751C23.9267 86.9885 24.1377 86.366 24.1377 86.366L24.1727 86.2658L27.9076 64.9647C28.0136 64.4391 28.0406 63.9469 27.9236 63.4692C27.8035 62.9854 27.5247 62.5694 27.1424 62.3034C26.8218 62.0862 26.4499 61.9815 26.0752 62.0027ZM25.9741 64.2855C25.9701 64.3556 25.9821 64.3478 25.9541 64.4826V64.4948L22.2543 85.5743C22.2383 85.6043 22.2113 85.67 22.1373 85.7357C22.0592 85.8048 21.9972 85.8482 21.6721 85.7045L15.7608 80.6591L12.19 84.2825L12.9401 78.9487L22.5984 68.9267C22.9965 68.5147 22.8634 68.4279 22.8634 68.4279C22.8914 67.9223 22.2623 68.2798 22.2623 68.2798L10.0835 76.6792L10.0795 76.657L4.24215 74.4689V74.4644L4.22714 74.4611L4.25715 74.4477L4.28916 74.4299L4.32016 74.4176C4.32016 74.4176 9.53236 71.9723 14.8306 69.4891C17.4832 68.2452 20.1558 66.9925 22.2113 66.0259C23.4303 65.4547 24.6506 64.8868 25.8721 64.3222C25.9541 64.2866 25.9151 64.2855 25.9741 64.2855Z" fill="black"/>
<path d="M26.0752 62.0027C25.7541 62.0292 25.439 62.113 25.1419 62.251H25.1379C24.8529 62.3768 23.4976 63.0116 21.4371 63.9737L14.0534 67.4357C8.75518 69.9189 3.54699 72.3643 3.54699 72.3643L3.609 72.3375C3.609 72.3375 3.24992 72.4689 2.87483 72.7551C2.64258 72.9185 2.44306 73.1334 2.2887 73.3865C2.10465 73.6871 1.95662 74.147 2.01163 74.6225C2.10165 75.4265 2.56976 75.9087 2.90584 76.1748C3.24592 76.4443 3.56999 76.5701 3.56999 76.5701H3.57799L8.46212 78.4019C8.68117 79.1847 9.95046 83.8304 10.2555 84.9006C10.4356 85.5397 10.6106 85.9395 10.8297 86.2446C10.9344 86.4005 11.0607 86.5308 11.2087 86.6355C11.2856 86.6869 11.3684 86.7266 11.4548 86.7535L11.4048 86.7401C11.4198 86.7446 11.4318 86.758 11.4428 86.7624C11.4828 86.7747 11.5098 86.7791 11.5608 86.788C12.334 87.0486 12.9551 86.5141 12.9551 86.5141L12.9902 86.4829L15.8738 83.5599L20.7069 87.6878L20.817 87.7401C21.8242 88.2323 22.8444 87.9584 23.3835 87.4751C23.9267 86.9885 24.1377 86.366 24.1377 86.366L24.1727 86.2658L27.9076 64.9647C28.0136 64.4391 28.0406 63.9469 27.9236 63.4692C27.8035 62.9854 27.5247 62.5694 27.1424 62.3034C26.8218 62.0862 26.4499 61.9815 26.0752 62.0027ZM25.9741 64.2855C25.9701 64.3556 25.9821 64.3478 25.9541 64.4826V64.4948L22.2543 85.5743C22.2383 85.6043 22.2113 85.67 22.1373 85.7357C22.0592 85.8048 21.9972 85.8482 21.6721 85.7045L15.7608 80.6591L12.19 84.2825L12.9401 78.9487L22.5984 68.9267C22.9965 68.5147 22.8634 68.4279 22.8634 68.4279C22.8914 67.9223 22.2623 68.2798 22.2623 68.2798L10.0835 76.6792L10.0795 76.657L4.24215 74.4689V74.4644L4.22714 74.4611L4.25715 74.4477L4.28916 74.4299L4.32016 74.4176C4.32016 74.4176 9.53236 71.9723 14.8306 69.4891C17.4832 68.2452 20.1558 66.9925 22.2113 66.0259C23.4303 65.4547 24.6506 64.8868 25.8721 64.3222C25.9541 64.2866 25.9151 64.2855 25.9741 64.2855Z" fill="black"/>
<path d="M51.2427 77.9463C51.2427 79.0852 51.5664 79.5394 52.4127 79.5394C54.2991 79.5394 55.5002 77.1328 55.5002 73.1303C55.5002 67.0126 51.0477 64.084 45.4889 64.084C39.7702 64.084 34.5689 67.9238 34.5689 75.1803C34.5689 82.1115 39.1189 85.8862 46.1064 85.8862C48.4789 85.8862 50.0714 85.6259 52.5075 84.8124L53.0302 86.9912C50.6252 87.7736 48.055 88 46.0739 88C36.9089 88 32 82.9562 32 75.179C32 67.3367 37.6889 62 45.5214 62C53.6789 62 58 66.8811 58 72.8686C58 77.9449 56.4089 81.8173 51.4039 81.8173C49.1275 81.8173 47.6339 80.9061 47.4389 78.8873C46.8539 81.1326 45.2939 81.8173 43.18 81.8173C40.3525 81.8173 37.98 79.6357 37.98 75.2441C37.98 70.8185 40.0614 68.0851 43.7989 68.0851C45.7814 68.0851 47.0164 68.8661 47.5661 70.1026L48.51 68.378H51.24V77.9463H51.2427ZM47.2466 73.6509C47.2466 71.8625 45.9127 71.1127 44.8077 71.1127C43.6052 71.1127 42.2741 72.0876 42.2741 74.9525C42.2741 77.2304 43.2816 78.4995 44.8077 78.4995C45.8802 78.4995 47.2466 77.8161 47.2466 75.9288V73.6509Z" fill="black"/>
<path d="M24.2111 95.7831C23.0131 94.5794 21.5863 93.625 20.0138 92.9755C18.4414 92.3261 16.7548 91.9945 15.0523 92.0001C7.91859 92.0001 2.10452 97.7851 2.10452 104.883C2.10452 107.158 2.70553 109.368 3.82915 111.318L2 118L8.8593 116.206C10.7538 117.233 12.8834 117.779 15.0523 117.779C22.1859 117.779 28 111.994 28 104.896C28 101.451 26.6543 98.2141 24.2111 95.7831ZM15.0523 115.595C13.1186 115.595 11.2241 115.075 9.56482 114.1L9.17286 113.866L5.09648 114.932L6.1809 110.98L5.9196 110.577C4.84504 108.87 4.27458 106.897 4.27337 104.883C4.27337 98.9811 9.10754 94.1711 15.0392 94.1711C17.9136 94.1711 20.6181 95.2891 22.6432 97.3171C23.6461 98.3101 24.4409 99.4914 24.9814 100.792C25.5219 102.093 25.7974 103.488 25.792 104.896C25.8181 110.798 20.9839 115.595 15.0523 115.595ZM20.9578 107.587C20.6312 107.431 19.0372 106.651 18.7497 106.534C18.4492 106.43 18.2402 106.378 18.0181 106.69C17.796 107.015 17.1819 107.743 16.999 107.951C16.8161 108.172 16.6201 108.198 16.2935 108.029C15.9668 107.873 14.9216 107.522 13.6935 106.43C12.7266 105.572 12.0864 104.519 11.8905 104.194C11.7075 103.869 11.8643 103.7 12.0342 103.531C12.1779 103.388 12.3608 103.154 12.5176 102.972C12.6744 102.79 12.7397 102.647 12.8442 102.439C12.9487 102.218 12.8965 102.036 12.8181 101.88C12.7397 101.724 12.0864 100.138 11.8251 99.488C11.5638 98.8641 11.2894 98.9421 11.0935 98.9291H10.4663C10.2442 98.9291 9.90452 99.0071 9.60402 99.3321C9.31658 99.657 8.4804 100.437 8.4804 102.023C8.4804 103.609 9.64322 105.143 9.8 105.351C9.95678 105.572 12.0864 108.822 15.3266 110.213C16.0975 110.551 16.6985 110.746 17.1688 110.889C17.9397 111.136 18.6452 111.097 19.207 111.019C19.8342 110.928 21.1276 110.239 21.3889 109.485C21.6633 108.731 21.6633 108.094 21.5719 107.951C21.4804 107.808 21.2844 107.743 20.9578 107.587Z" fill="black"/>
<path d="M34.6 97.1429C34.6 95.4094 35.7659 94 37.2 94H52.8C54.2341 94 55.4 95.4094 55.4 97.1429V109.714H52.8V97.1429H37.2V109.714H34.6V97.1429ZM32 112.229C32 111.708 32.3494 111.286 32.78 111.286H57.22C57.6506 111.286 58 111.708 58 112.229C58 114.311 56.6025 116 54.88 116H35.12C33.3975 116 32 114.311 32 112.229ZM43.4156 102.692L42.1562 104.214L43.4156 105.737C43.7975 106.198 43.7975 106.945 43.4156 107.401C43.0338 107.858 42.4163 107.863 42.0384 107.401L40.0884 105.044C39.7066 104.583 39.7066 103.836 40.0884 103.379L42.0384 101.022C42.4203 100.561 43.0378 100.561 43.4156 101.022C43.7934 101.484 43.7975 102.23 43.4156 102.687V102.692ZM47.9656 101.022L49.9156 103.379C50.2975 103.841 50.2975 104.587 49.9156 105.044L47.9656 107.401C47.5837 107.863 46.9663 107.863 46.5884 107.401C46.2106 106.94 46.2066 106.193 46.5884 105.737L47.8478 104.214L46.5884 102.692C46.2066 102.23 46.2066 101.484 46.5884 101.027C46.9703 100.571 47.5878 100.566 47.9656 101.027V101.022Z" fill="black"/>
<path d="M26 124H4C3.46957 124 2.96086 124.211 2.58579 124.586C2.21071 124.961 2 125.47 2 126V144C2 144.53 2.21071 145.039 2.58579 145.414C2.96086 145.789 3.46957 146 4 146H26C26.5304 146 27.0391 145.789 27.4142 145.414C27.7893 145.039 28 144.53 28 144V126C28 125.47 27.7893 124.961 27.4142 124.586C27.0391 124.211 26.5304 124 26 124ZM10.6 137.2C10.8122 137.359 10.9524 137.596 10.9899 137.859C11.0275 138.121 10.9591 138.388 10.8 138.6C10.6409 138.812 10.404 138.952 10.1414 138.99C9.87887 139.027 9.61217 138.959 9.4 138.8L5.4 135.8C5.2758 135.707 5.175 135.586 5.10557 135.447C5.03614 135.308 5 135.155 5 135C5 134.845 5.03614 134.692 5.10557 134.553C5.175 134.414 5.2758 134.293 5.4 134.2L9.4 131.2C9.61217 131.041 9.87887 130.973 10.1414 131.01C10.404 131.048 10.6409 131.188 10.8 131.4C10.9591 131.612 11.0275 131.879 10.9899 132.141C10.9524 132.404 10.8122 132.641 10.6 132.8L7.66625 135L10.6 137.2ZM17.9613 128.275L13.9613 142.275C13.9272 142.404 13.8678 142.524 13.7866 142.629C13.7054 142.734 13.6041 142.823 13.4885 142.888C13.3728 142.954 13.2453 142.996 13.1133 143.012C12.9813 143.027 12.8475 143.017 12.7196 142.98C12.5918 142.943 12.4726 142.882 12.3689 142.799C12.2652 142.715 12.1791 142.612 12.1157 142.495C12.0523 142.379 12.0129 142.25 11.9996 142.118C11.9864 141.986 11.9997 141.852 12.0387 141.725L16.0387 127.725C16.1156 127.475 16.2876 127.264 16.5178 127.14C16.748 127.015 17.018 126.985 17.2697 127.057C17.5215 127.129 17.735 127.297 17.8643 127.525C17.9936 127.753 18.0284 128.022 17.9613 128.275ZM24.6 135.8L20.6 138.8C20.3878 138.959 20.1211 139.027 19.8586 138.99C19.596 138.952 19.3591 138.812 19.2 138.6C19.0409 138.388 18.9725 138.121 19.01 137.859C19.0476 137.596 19.1878 137.359 19.4 137.2L22.3337 135L19.4 132.8C19.2949 132.721 19.2064 132.622 19.1395 132.509C19.0726 132.396 19.0286 132.271 19.01 132.141C18.9915 132.011 18.9987 131.879 19.0313 131.752C19.0639 131.625 19.1212 131.505 19.2 131.4C19.2788 131.295 19.3775 131.206 19.4905 131.14C19.6035 131.073 19.7286 131.029 19.8586 131.01C19.9886 130.991 20.121 130.999 20.2482 131.031C20.3754 131.064 20.4949 131.121 20.6 131.2L24.6 134.2C24.7242 134.293 24.825 134.414 24.8944 134.553C24.9639 134.692 25 134.845 25 135C25 135.155 24.9639 135.308 24.8944 135.447C24.825 135.586 24.7242 135.707 24.6 135.8Z" fill="black"/>
<path d="M47.4408 141.402C47.2934 141.54 47.1752 141.705 47.0932 141.889C47.0112 142.073 46.9671 142.272 46.9636 142.473C46.96 142.675 46.9971 142.875 47.0725 143.062C47.148 143.249 47.2603 143.418 47.4027 143.561C47.5452 143.703 47.7148 143.815 47.9016 143.891C48.0884 143.966 48.2885 144.003 48.4899 144C48.6913 143.996 48.8899 143.952 49.0739 143.87C49.258 143.788 49.4236 143.67 49.5609 143.523L57.5613 135.522C57.8422 135.241 58 134.86 58 134.462C58 134.065 57.8422 133.683 57.5613 133.402L49.5609 125.402C49.4236 125.254 49.258 125.136 49.0739 125.054C48.8899 124.972 48.6913 124.928 48.4899 124.924C48.2885 124.921 48.0884 124.958 47.9016 125.033C47.7148 125.109 47.5452 125.221 47.4027 125.364C47.2603 125.506 47.148 125.676 47.0725 125.862C46.9971 126.049 46.96 126.249 46.9636 126.451C46.9671 126.652 47.0112 126.851 47.0932 127.035C47.1752 127.219 47.2934 127.384 47.4408 127.522L52.8811 132.962H33.5001C33.1022 132.962 32.7207 133.12 32.4394 133.401C32.158 133.683 32 134.064 32 134.462C32 134.86 32.158 135.241 32.4394 135.523C32.7207 135.804 33.1022 135.962 33.5001 135.962H52.8811L47.4408 141.402Z" fill="black"/>
<path fill-rule="evenodd" clip-rule="evenodd" d="M22.8178 163.617C21.9757 163.199 21.0896 162.644 20.4062 161.841C19.5947 160.886 19.2646 159.657 19.043 158.364C18.7584 156.702 18.6447 154.931 18.2996 153.267C18.1719 152.648 17.926 152.415 17.8205 152.311C17.5538 152.049 17.2843 151.979 17.0307 152.005C16.7302 152.035 16.3173 152.194 16.0458 152.895C16.0071 152.995 15.9568 153.148 15.9229 153.357C15.8983 153.511 15.8823 153.991 15.8562 154.189C15.7908 154.677 15.7361 155.164 15.6848 155.655C15.514 157.286 15.4157 158.672 14.8761 160.171C14.1439 162.206 13.4102 163.452 12.4152 164.003C11.4531 164.537 10.3028 164.436 8.83305 164.018C8.69318 163.971 8.55479 163.93 8.41783 163.897C7.76982 163.74 7.15035 164.332 7.02307 165.23C6.89579 166.128 7.30763 167.003 7.94983 167.2C8.08388 167.241 8.21601 167.28 8.34667 167.316C10.3328 168 12.6321 170.442 13.9683 172.58C14.3801 173.239 14.9831 175.083 15.5982 176.258C16.0521 177.126 16.5622 177.698 16.9905 177.9C17.2775 178.036 17.5195 178.015 17.7194 177.946C18.0097 177.846 18.2507 177.628 18.4356 177.279C18.5363 177.089 18.6297 176.834 18.6742 176.508C18.6955 176.351 18.6979 175.952 18.6974 175.772C18.8228 175.172 18.9762 174.586 19.088 173.98C19.3546 172.536 19.8778 171.621 20.4992 170.413C21.0804 169.282 21.7047 168.572 22.6198 168.005C22.7389 167.964 23.6995 167.637 24.0388 167.449C24.5343 167.174 24.7705 166.712 24.8562 166.464C25.0018 166.042 25.0168 165.674 24.9878 165.367C24.9447 164.914 24.7986 164.526 24.5392 164.213C24.3785 164.018 24.1385 163.829 23.8171 163.737C23.5689 163.664 22.9102 163.623 22.8178 163.617ZM17.1822 161.262C17.1376 161.4 17.0902 161.539 17.0399 161.679C15.9675 164.66 14.7682 166.324 13.3106 167.131L13.2617 167.158C14.2368 168.165 15.1196 169.291 15.7942 170.371C16.072 170.815 16.4398 171.738 16.8371 172.685C17.1981 171.052 17.7886 169.898 18.5309 168.453C19.0981 167.351 19.6924 166.521 20.4227 165.845C19.856 165.44 19.3154 164.966 18.8445 164.413C18.0605 163.491 17.5422 162.423 17.1822 161.262Z" fill="black"/>
<path d="M32.3169 177.683C32.7394 178.106 33.4262 178.106 33.8487 177.683L55.8334 155.698V163.916C55.8334 164.514 56.3187 165 56.9167 165C57.5147 165 58 164.514 58 163.916V153.083C58 152.942 57.9718 152.802 57.9155 152.669C57.805 152.405 57.5948 152.193 57.3305 152.084C57.1984 152.028 57.0575 152 56.9167 152H46.0836C45.4856 152 45.0003 152.485 45.0003 153.083C45.0003 153.681 45.4856 154.167 46.0836 154.167H54.3016L32.3169 176.149C31.8944 176.574 31.8944 177.258 32.3169 177.683Z" fill="black"/>
<path d="M15 182C11.55 182 8.75325 184.797 8.75325 188.247C8.75325 188.526 8.52648 188.753 8.24675 188.753C4.79677 188.753 2 191.55 2 195C2 198.45 4.79677 201.247 8.24675 201.247C8.52648 201.247 8.75325 201.474 8.75325 201.753C8.75325 205.203 11.55 208 15 208C18.45 208 21.2468 205.203 21.2468 201.753C21.2468 201.474 21.4735 201.247 21.7532 201.247C25.2032 201.247 28 198.45 28 195C28 191.55 25.2032 188.753 21.7532 188.753C21.4735 188.753 21.2468 188.526 21.2468 188.247C21.2468 184.797 18.45 182 15 182Z" fill="black"/>
<path fill-rule="evenodd" clip-rule="evenodd" d="M45 208C44.974 200.829 39.1637 195.024 32 195.024C39.1797 195.024 45 189.193 45 182C45.0259 189.171 50.8363 194.976 58 194.976C50.8202 194.976 45 200.807 45 208Z" fill="black"/>
<path d="M10.8947 233.445C8.9038 233.789 6.71447 233.63 4.73614 232.462C4.40925 232.269 4.83136 231.637 5.11865 231.802C7.73445 233.306 10.6547 232.983 13.1199 232.112C15.7157 231.194 18.1471 229.559 19.8505 227.071C21.0936 225.255 21.9275 223.044 22.3391 220.64C22.5455 219.436 22.6405 218.188 22.645 216.925C22.6472 216.284 22.6216 215.637 22.578 214.99C22.5572 214.682 22.5261 214.373 22.4958 214.064C22.3552 214.75 22.1814 215.524 21.8232 216.06C21.7483 216.172 21.639 216.277 21.5027 216.251C21.392 216.229 21.3226 216.091 21.3494 215.966C21.4839 215.34 21.7191 214.77 21.8468 214.136C21.9806 213.472 22.057 212.777 22.0571 212.071C22.0571 211.776 22.4192 211.26 22.6855 211.601C23.0284 212.039 23.2646 212.562 23.4896 213.089C23.6156 213.384 23.7389 213.68 23.8783 213.967C24.0213 214.262 24.2315 214.507 24.3565 214.81C24.4873 215.128 24.0896 215.577 23.8393 215.399C23.6037 215.232 23.4181 214.937 23.2628 214.623C23.2781 214.879 23.2898 215.134 23.3015 215.386C23.3449 216.326 23.3329 217.259 23.2794 218.183C23.1737 220.002 22.8447 221.764 22.3123 223.399C21.2561 226.644 19.3227 229.214 16.8927 230.922C15.0815 232.194 13.038 233.074 10.8947 233.445Z" fill="black"/>
<path d="M20.8166 221.363C20.8123 221.399 20.7961 221.546 20.773 221.859C20.764 221.983 20.754 222.119 20.7441 222.255C20.7346 222.39 20.7262 222.525 20.7146 222.644C20.7042 222.763 20.6952 222.867 20.6888 222.94C20.683 223.015 20.6777 223.058 20.6777 223.058L20.6439 223.28L20.6268 223.391L20.5993 223.562C20.5037 224.085 20.3591 224.589 20.1773 225.068L20.0268 225.418C20.0006 225.475 19.9785 225.537 19.9486 225.591L19.8613 225.753C19.7436 225.969 19.6318 226.191 19.5001 226.393L19.308 226.702L19.2598 226.78L19.2075 226.853L19.1026 226.998L18.8919 227.289C18.8579 227.339 18.8182 227.382 18.7804 227.427L18.6659 227.562L18.4362 227.83C18.3577 227.916 18.2751 227.996 18.1946 228.079L17.9511 228.325C17.9112 228.367 17.8689 228.406 17.8258 228.443L17.6977 228.556C17.5254 228.705 17.3592 228.864 17.1765 228.996L16.9073 229.2L16.7726 229.302C16.7268 229.334 16.6794 229.364 16.633 229.395L16.3525 229.578C16.2581 229.637 16.1672 229.703 16.0686 229.753C15.8744 229.86 15.6819 229.969 15.4852 230.069L14.8838 230.339C14.678 230.414 14.4714 230.486 14.2653 230.557C14.2165 230.576 14.1655 230.588 14.1151 230.601L13.9635 230.64L13.6604 230.715C13.6526 230.717 13.6355 230.72 13.6315 230.721C13.5733 230.733 13.5443 230.741 13.5331 230.745C13.5487 230.739 13.5935 230.718 13.63 230.699C13.6421 230.693 13.6444 230.692 13.6521 230.688L13.9363 230.558L14.0783 230.495C14.1258 230.474 14.1735 230.454 14.2191 230.428L14.7893 230.133L15.3436 229.806C15.526 229.694 15.7024 229.568 15.8825 229.452C15.9734 229.395 16.0596 229.329 16.1458 229.264L16.4057 229.069C16.5822 228.946 16.7438 228.797 16.9123 228.66C16.9949 228.589 17.0817 228.525 17.161 228.449L17.4016 228.224L17.6425 228L17.8725 227.761L18.1032 227.522C18.1801 227.443 18.2487 227.354 18.3221 227.271L18.5394 227.018C18.6106 226.932 18.6749 226.837 18.7432 226.748L18.946 226.476C19.0104 226.382 19.0719 226.285 19.1353 226.189L19.3248 225.902L19.5013 225.601L19.6787 225.301L19.8326 224.986L19.9098 224.828L19.9781 224.662C20.0223 224.551 20.0723 224.443 20.1131 224.329L20.2321 223.985C20.2534 223.928 20.2703 223.869 20.2867 223.809L20.3376 223.63L20.3891 223.452L20.4136 223.35L20.4382 223.247L20.4876 223.041C20.4876 223.041 20.5091 222.967 20.5336 222.853C20.559 222.74 20.5926 222.588 20.626 222.439C20.6854 222.136 20.7403 221.837 20.7354 221.863C20.7794 221.614 20.8114 221.407 20.8166 221.363Z" fill="black"/>
<path d="M34.8123 220.46L40.1329 235.036C36.4137 233.23 33.8478 229.414 33.8478 225C33.8463 223.436 34.175 221.889 34.8123 220.46ZM52.5274 224.436C52.5274 223.058 52.0321 222.104 51.6075 221.362C51.044 220.442 50.5145 219.664 50.5145 218.746C50.5145 217.722 51.2903 216.768 52.3859 216.768C52.4357 216.768 52.4829 216.773 52.53 216.775C50.4768 214.888 47.7886 213.843 45 213.848C41.1026 213.848 37.677 215.848 35.6825 218.875C35.9446 218.883 36.1909 218.888 36.4006 218.888C37.5669 218.888 39.3728 218.746 39.3728 218.746C39.973 218.71 40.0437 219.593 39.4435 219.666C39.4435 219.666 38.8381 219.737 38.1671 219.771L42.227 231.851L44.6671 224.531L42.9321 219.771C42.3292 219.734 41.7605 219.664 41.7605 219.664C41.1603 219.63 41.231 218.71 41.8313 218.746C41.8313 218.746 43.6738 218.888 44.7694 218.888C45.9357 218.888 47.7415 218.746 47.7415 218.746C48.3444 218.71 48.4125 219.593 47.8123 219.664C47.8123 219.664 47.2069 219.734 46.5359 219.771L50.5669 231.759L51.6782 228.043C52.1605 226.499 52.5274 225.391 52.5274 224.436ZM45.1966 225.975L41.8496 235.699C44.0964 236.359 46.4939 236.297 48.7034 235.521C48.6715 235.472 48.6452 235.42 48.6248 235.366L45.1966 225.975ZM54.7841 219.648C54.836 220.028 54.8614 220.412 54.8601 220.796C54.8601 221.928 54.6478 223.199 54.0109 224.79L50.6063 234.64C53.9218 232.706 56.1522 229.115 56.1522 225C56.155 223.129 55.6844 221.288 54.7841 219.648ZM58 225C58 232.168 52.1683 238 45 238C37.8317 238 32 232.168 32 225C32 217.832 37.8317 212 45 212C52.1683 212 58 217.832 58 225ZM57.4024 225C57.4024 218.159 51.8381 212.595 45 212.595C38.1619 212.595 32.595 218.159 32.595 225C32.595 231.841 38.1593 237.405 45 237.405C51.8407 237.405 57.4024 231.841 57.4024 225Z" fill="#21759B"/>
<g clip-path="url(#clip0_2_3)">
<path d="M11.2422 268.203C13.6594 268.203 15.6094 266.253 15.6094 263.836V259.469H11.2422C8.825 259.469 6.875 261.419 6.875 263.836C6.875 266.253 8.825 268.203 11.2422 268.203Z" fill="#0ACF83"/>
<path d="M6.875 255.102C6.875 252.684 8.825 250.734 11.2422 250.734H15.6094V259.469H11.2422C8.825 259.469 6.875 257.519 6.875 255.102Z" fill="#A259FF"/>
<path d="M6.875 246.367C6.875 243.95 8.825 242 11.2422 242H15.6094V250.734H11.2422C8.825 250.734 6.875 248.784 6.875 246.367Z" fill="#F24E1E"/>
<path d="M15.6094 242H19.9766C22.3937 242 24.3438 243.95 24.3438 246.367C24.3438 248.784 22.3937 250.734 19.9766 250.734H15.6094V242Z" fill="#FF7262"/>
<path d="M24.3438 255.102C24.3438 257.519 22.3937 259.469 19.9766 259.469C17.5594 259.469 15.6094 257.519 15.6094 255.102C15.6094 252.684 17.5594 250.734 19.9766 250.734C22.3937 250.734 24.3438 252.684 24.3438 255.102Z" fill="#1ABCFE"/>
</g>
<path d="M37.2001 252.106C37.4864 252.062 37.777 252.088 38.0552 252.183C38.3333 252.277 38.5934 252.439 38.8204 252.658C38.9667 252.936 39.06 253.251 39.0932 253.58C39.1265 253.908 39.099 254.242 39.0126 254.556C38.9367 255.327 38.6334 256.038 38.1602 256.553C37.5895 257.005 36.915 257.217 36.238 257.158H34.938L35.7366 252.117L37.2001 252.106ZM32 262.262H34.1357L34.6418 259.062H36.4683C37.1413 259.084 37.8129 258.977 38.4592 258.745C38.9896 258.528 39.4747 258.17 39.8799 257.696C40.5787 256.921 41.0501 255.884 41.2208 254.745C41.3547 254.178 41.3782 253.581 41.2895 253C41.2007 252.42 41.0023 251.874 40.7101 251.406C40.3577 250.976 39.9334 250.646 39.4666 250.439C38.9999 250.232 38.5021 250.153 38.0079 250.207H33.9101L32 262.262ZM42.7873 247H44.9073L44.3938 250.2H46.2797C47.1462 250.089 48.0166 250.36 48.7358 250.965C48.974 251.297 49.1368 251.701 49.2079 252.136C49.279 252.571 49.2558 253.021 49.1407 253.441L48.2548 259.052H46.1098L46.9529 253.718C47.0114 253.514 47.0322 253.297 47.0139 253.082C46.9956 252.868 46.9386 252.661 46.8471 252.477C46.5397 252.205 46.1598 252.088 45.7848 252.15H44.092L43.0009 259.057H40.8763L42.7873 247ZM53.8579 252.106C54.1442 252.062 54.4349 252.088 54.713 252.183C54.9911 252.277 55.2512 252.439 55.4783 252.658C55.6245 252.936 55.7178 253.251 55.7511 253.58C55.7844 253.908 55.7568 254.242 55.6705 254.556C55.5945 255.327 55.2912 256.038 54.818 256.553C54.2462 257.006 53.5704 257.218 52.8922 257.158H51.5931L52.3898 252.111L53.8579 252.106ZM48.6578 262.262H50.7936L51.2996 259.062H53.1271C53.8013 259.084 54.4742 258.978 55.1217 258.745C55.6521 258.528 56.1372 258.17 56.5424 257.696C57.2395 256.92 57.7091 255.883 57.8786 254.745C58.0125 254.178 58.036 253.581 57.9473 253C57.8585 252.42 57.6601 251.874 57.3679 251.406C57.0154 250.977 56.5911 250.647 56.1246 250.441C55.658 250.234 55.1605 250.156 54.6667 250.21H50.5623L48.6578 262.262Z" fill="#8993BE"/>
<g clip-path="url(#clip1_2_3)">
<path d="M25.9054 291.955C24.489 291.917 23.4075 292.049 22.4823 292.439C22.2197 292.55 21.8008 292.552 21.758 292.881C21.9024 293.033 21.9245 293.259 22.0397 293.446C22.2603 293.802 22.6332 294.281 22.9658 294.533C23.3291 294.806 23.7037 295.1 24.0933 295.337C24.7868 295.76 25.5605 296.001 26.2269 296.424C26.6206 296.674 27.0108 296.988 27.3949 297.27C27.5846 297.409 27.7124 297.626 27.9582 297.713V297.673C27.8288 297.508 27.7955 297.281 27.6764 297.109L27.1528 296.586C26.6409 295.906 25.9911 295.31 25.3009 294.815C24.7502 294.419 23.5172 293.885 23.2879 293.244L23.2475 293.204C23.6379 293.16 24.0949 293.018 24.4559 292.921C25.0612 292.76 25.6025 292.802 26.2269 292.64L27.0727 292.399V292.238C26.7569 291.914 26.5316 291.485 26.1873 291.191C25.2852 290.423 24.3013 289.656 23.2881 289.017C22.7263 288.662 22.032 288.431 21.4362 288.131C21.2355 288.03 20.8839 287.977 20.7515 287.809C20.4389 287.41 20.2683 286.905 20.0271 286.44C19.5218 285.466 19.0257 284.404 18.5774 283.38C18.2719 282.682 18.0729 281.993 17.692 281.367C15.8639 278.361 13.8962 276.547 10.8477 274.764C10.1987 274.384 9.41792 274.234 8.59263 274.038L7.26358 273.958C6.99302 273.845 6.71209 273.514 6.45819 273.353C5.44845 272.715 2.8578 271.327 2.10948 273.152C1.63742 274.303 2.81575 275.427 3.23703 276.011C3.53298 276.42 3.91141 276.879 4.12245 277.339C4.2622 277.642 4.28597 277.945 4.405 278.265C4.69709 279.054 4.95242 279.912 5.33105 280.641C5.52219 281.01 5.73323 281.398 5.97536 281.728C6.12303 281.93 6.37755 282.02 6.41817 282.332C6.16894 282.68 6.15472 283.22 6.01517 283.661C5.38589 285.645 5.62395 288.111 6.53883 289.579C6.81975 290.031 7.48153 290.997 8.39072 290.627C9.18656 290.302 9.00883 289.298 9.23653 288.412C9.28812 288.211 9.25644 288.064 9.35719 287.929V287.969L10.0823 289.418C10.6188 290.282 11.57 291.185 12.377 291.795C12.7953 292.11 13.1245 292.656 13.6657 292.841V292.801H13.6252C13.5204 292.637 13.3563 292.57 13.2231 292.439C12.908 292.129 12.5574 291.745 12.297 291.392C11.5631 290.396 10.9147 289.305 10.3245 288.171C10.0419 287.629 9.79675 287.032 9.55869 286.48C9.46667 286.267 9.4683 285.945 9.27695 285.836C9.01675 286.24 8.63264 286.567 8.43114 287.043C8.1098 287.806 8.06775 288.737 7.94872 289.701C7.87803 289.726 7.90911 289.709 7.86787 289.741C7.30684 289.605 7.11022 289.029 6.90141 288.533C6.3745 287.281 6.27619 285.264 6.74033 283.822C6.86017 283.449 7.40292 282.275 7.18314 281.93C7.07833 281.586 6.73241 281.387 6.53883 281.124C6.29914 280.8 6.06047 280.372 5.89452 279.997C5.46288 279.021 5.26219 277.924 4.80739 276.937C4.59005 276.465 4.22341 275.988 3.92197 275.569C3.58783 275.104 3.21428 274.761 2.9555 274.199C2.86348 273.999 2.73897 273.679 2.87466 273.475C2.91833 273.336 2.97947 273.278 3.11658 273.233C3.34977 273.053 4.00058 273.293 4.24331 273.394C4.88925 273.662 5.42794 273.918 5.97536 274.28C6.23719 274.454 6.50308 274.791 6.82036 274.884H7.18294C7.74945 275.014 8.38422 274.924 8.91417 275.085C9.85038 275.37 10.6891 275.812 11.4508 276.293C13.7709 277.759 15.6689 279.844 16.9669 282.333C17.1755 282.734 17.2661 283.115 17.4501 283.541C17.8206 284.398 18.288 285.279 18.6569 286.118C19.0257 286.953 19.3845 287.798 19.9057 288.493C20.1795 288.859 21.2363 289.055 21.7171 289.258C22.0543 289.4 22.6066 289.549 22.9255 289.742C23.5349 290.109 24.1252 290.547 24.6974 290.949C24.9822 291.151 25.8613 291.593 25.905 291.956L25.9054 291.955ZM7.90748 276.615C7.61234 276.61 7.40373 276.647 7.18314 276.696V276.736H7.22275C7.36392 277.025 7.61234 277.211 7.78683 277.46L8.18902 278.306L8.22944 278.267C8.47867 278.09 8.59283 277.81 8.5912 277.38C8.49127 277.275 8.47705 277.144 8.3897 277.018C8.27555 276.85 8.05252 276.756 7.90728 276.616L7.90748 276.615Z" fill="#00618A"/>
</g>
<path d="M32 272H58V298H32V272Z" fill="#F0DB4F"/>
<path d="M55.8722 291.799C55.6817 290.613 54.9083 289.617 52.6172 288.688C51.8213 288.322 50.934 288.06 50.6696 287.457C50.5758 287.106 50.5633 286.908 50.6227 286.696C50.7932 286.006 51.6163 285.791 52.2687 285.989C52.6888 286.13 53.0866 286.453 53.3265 286.97C54.4484 286.243 54.4461 286.248 55.2296 285.749C54.9427 285.304 54.7897 285.099 54.6019 284.909C53.9271 284.155 53.0077 283.767 51.5372 283.797L50.7712 283.896C50.0372 284.081 49.3377 284.466 48.9275 284.983C47.6967 286.379 48.0477 288.824 49.5454 289.829C51.0209 290.937 53.1884 291.189 53.4652 292.224C53.7346 293.492 52.5335 293.903 51.3397 293.757C50.4599 293.574 49.9705 293.127 49.4415 292.313C48.4679 292.877 48.4679 292.877 47.4668 293.453C47.7042 293.972 47.9536 294.207 48.3516 294.656C50.2349 296.567 54.9479 296.473 55.7933 293.581C55.8275 293.482 56.0552 292.82 55.8722 291.799ZM46.1344 283.95H43.7025L43.6926 290.237C43.6926 291.574 43.7617 292.8 43.5443 293.176C43.1885 293.915 42.2665 293.823 41.8464 293.68C41.4187 293.469 41.2013 293.171 40.9493 292.748C40.8802 292.627 40.8283 292.533 40.8108 292.526L38.8336 293.737C39.1623 294.411 39.6467 294.997 40.2671 295.378C41.1938 295.934 42.4393 296.104 43.742 295.805C44.5898 295.558 45.3213 295.047 45.7043 294.268C46.258 293.247 46.1392 292.012 46.1342 290.645C46.1467 288.415 46.1344 286.186 46.1344 283.95Z" fill="black"/>
<path d="M6.00217 325.401L3.99998 302H26L23.9951 325.397L14.9866 328L6.00217 325.401Z" fill="#E44F26"/>
<path d="M15.4782 326.338L23.293 324.341L25.1315 305.354H15.4782V326.338Z" fill="#F1662A"/>
<path d="M15.4782 313.595H11.5661L11.2963 310.804H15.4782V308.079H8.06519L8.13597 308.81L8.86197 316.321H15.4782V313.595ZM15.4782 320.673L15.4648 320.677L12.1725 319.858L11.9621 317.684H8.99397L9.40814 321.962L15.4648 323.513L15.4782 323.509V320.673Z" fill="#EBEBEB"/>
<path d="M15.4678 313.595V316.321H19.1083L18.7658 319.856L15.4678 320.676V323.512L21.5292 321.962L21.5732 321.502L22.2677 314.327L22.3404 313.595H15.4678ZM15.4678 308.079V310.804H22.6091L22.6685 310.192L22.8033 308.81L22.8741 308.079H15.4678Z" fill="white"/>
<path d="M36.0021 325.401L34 302H56L53.9959 325.397L44.9867 328L36.0021 325.401Z" fill="#1572B6"/>
<path d="M45.0003 326.011L52.2803 323.908L53.993 303.914H45.0003V326.011Z" fill="#33A9DC"/>
<path d="M45.0003 312.391H48.6448L48.8965 309.453H45.0003V306.583H51.9065L51.8404 307.353L51.1634 315.261H45.0003V312.391Z" fill="white"/>
<path d="M45.0166 319.846L45.0044 319.849L41.9372 318.986L41.7411 316.697H38.9767L39.3624 321.204L45.004 322.835L45.0166 322.832V319.846Z" fill="#EBEBEB"/>
<path d="M48.4105 315.14L48.0788 318.984L45.007 319.848V322.834L50.6531 321.203L50.6945 320.718L51.1736 315.14H48.4105Z" fill="white"/>
<path d="M45.0096 306.583V309.453H38.357L38.3019 308.808L38.1764 307.353L38.1105 306.583H45.0096ZM45.0002 312.392V315.262H41.9716L41.9165 314.617L41.7908 313.162L41.7251 312.392H45.0002Z" fill="#EBEBEB"/>
<path d="M7.32777 332.022C7.28599 332.038 6.11203 332.689 4.71936 333.467C3.03195 334.41 2.16526 334.907 2.11889 334.954C2.0792 335 2.04786 335.052 2.02739 335.108C1.99251 335.223 1.99 351.965 2.0253 352.085C2.03805 352.132 2.07962 352.2 2.11722 352.238C2.20829 352.332 12.2826 357.964 12.4051 357.991C12.4619 358.005 12.5256 358.002 12.5889 357.985C12.7263 357.952 22.7744 352.332 22.8638 352.24C22.9003 352.2 22.9421 352.132 22.9557 352.085C22.9732 352.03 22.9797 351.155 22.9797 349.312V346.618L25.4291 345.25C27.7386 343.959 27.88 343.878 27.9394 343.789L28 343.694V340.793C28 337.635 28.0062 337.812 27.8778 337.698C27.8433 337.669 26.6666 337.001 25.2604 336.213L22.706 334.785H22.4222L19.9232 336.18C18.5475 336.95 17.3781 337.608 17.3211 337.644C17.2643 337.68 17.1964 337.748 17.1686 337.796L17.118 337.881L17.1068 340.614L17.0967 343.348L15.0331 344.504C13.898 345.139 12.9532 345.664 12.9331 345.669C12.8966 345.679 12.8941 345.419 12.8941 340.394V335.107L12.8398 335.016C12.7717 334.905 13.0771 335.082 10.0105 333.368C7.4389 331.929 7.50073 331.96 7.32777 332.022ZM9.69178 334.116C10.7676 334.716 11.6478 335.213 11.6478 335.219C11.6478 335.225 10.7045 335.756 9.55161 336.4L7.45415 337.571L5.36044 336.4C4.21009 335.756 3.26736 335.225 3.26736 335.219C3.26736 335.213 4.20841 334.683 5.35898 334.04L7.44767 332.872L7.59181 332.948C8.29312 333.335 8.99311 333.725 9.69178 334.116ZM24.6625 336.81C25.7951 337.444 26.7322 337.968 26.741 337.976C26.7648 337.997 22.6104 340.319 22.5536 340.317C22.4967 340.315 18.3935 338.015 18.3952 337.987C18.3973 337.955 22.5256 335.645 22.5673 335.652C22.5864 335.656 23.5297 336.178 24.6625 336.81ZM5.03604 337.145L7.03261 338.263L7.0441 343.797L7.05454 349.333L7.10321 349.407C7.1287 349.447 7.17674 349.501 7.21184 349.525C7.24484 349.549 8.35593 350.165 9.6805 350.891L12.0869 352.213V354.554C12.0869 355.839 12.0779 356.893 12.0667 356.893C12.0581 356.893 9.97775 355.736 7.44517 354.319L2.84123 351.744L2.83496 343.829L2.83099 335.917L2.93335 335.972C2.99247 336.002 3.93748 336.53 5.03583 337.145L5.03604 337.145ZM12.0869 341.041V346.141L12.0061 346.192C11.8964 346.26 7.89783 348.495 7.88425 348.495C7.87799 348.495 7.87297 346.192 7.87297 343.378L7.87548 338.262L9.96438 337.094C11.1131 336.451 12.0604 335.93 12.0717 335.933C12.0798 335.938 12.0869 338.237 12.0869 341.041ZM20.0561 339.868L22.1498 341.038V343.359C22.1498 345.56 22.1475 345.679 22.113 345.666C22.0907 345.657 21.1433 345.129 20.0068 344.493L17.9367 343.337V341.017C17.9367 339.74 17.9434 338.697 17.9496 338.697C17.9586 338.697 18.9057 339.223 20.0561 339.868ZM27.1926 341.003C27.1926 342.273 27.1838 343.321 27.175 343.331C27.16 343.354 23.019 345.674 22.9926 345.674C22.9862 345.674 22.9797 344.631 22.9797 343.354V341.034L25.0686 339.865C26.219 339.223 27.1663 338.697 27.175 338.697C27.1861 338.697 27.1926 339.734 27.1926 341.003ZM21.6831 346.408L12.4945 351.508L8.32731 349.203C8.32731 349.203 17.5068 344.041 17.5435 344.054L21.6831 346.408ZM22.1458 349.42L22.1387 351.744L17.5373 354.319C15.0055 355.736 12.9246 356.894 12.9141 356.894C12.903 356.894 12.8943 355.947 12.8943 354.554V352.213L17.5066 349.655C20.0408 348.249 22.1232 347.098 22.1343 347.096C22.1433 347.096 22.1473 348.141 22.1456 349.42L22.1458 349.42Z" fill="#F0513F"/>
<path d="M45.8104 345.751C45.8367 346.031 45.2854 346.184 44.9996 345.751C44.6907 345.368 44.9178 344.48 45.8104 344.223C46.651 343.919 47.9812 344.502 48.2427 345.751C48.5758 346.951 47.5699 348.571 45.8104 348.807C44.1055 349.131 41.9928 347.817 41.7565 345.751C41.3982 343.735 43.1866 341.38 45.8104 341.167C48.3832 340.82 51.2717 342.869 51.4858 345.751C51.8668 348.583 49.3021 351.673 45.8104 351.863C42.3701 352.234 38.7033 349.448 38.5134 345.751C38.1088 342.102 41.4512 338.279 45.8104 338.112C50.1145 337.72 54.5643 341.236 54.7289 345.751C55.1583 350.216 51.0349 354.774 45.8104 354.918C40.6383 355.334 35.4123 351.082 35.2703 345.751C34.8188 340.47 39.718 335.178 45.8104 335.056C51.8482 334.617 57.8547 339.604 57.972 345.751C58.4487 351.849 52.7681 357.874 45.8104 357.974C38.9072 358.434 32.1198 352.715 32.0271 345.751C31.5278 338.837 37.9857 332.077 45.8104 332" stroke="black" stroke-width="0.5" stroke-linecap="round"/>
<path fill-rule="evenodd" clip-rule="evenodd" d="M22.6471 369.429C22.6471 373.531 19.2235 376.857 15 376.857C10.7765 376.857 7.35294 373.531 7.35294 369.429C7.35294 365.326 10.7765 362 15 362C19.2235 362 22.6471 365.326 22.6471 369.429ZM21.1176 369.429C21.1176 371.005 20.4731 372.516 19.3258 373.631C18.1785 374.745 16.6225 375.371 15 375.371C13.3775 375.371 11.8215 374.745 10.6742 373.631C9.52689 372.516 8.88235 371.005 8.88235 369.429C8.88235 367.852 9.52689 366.341 10.6742 365.226C11.8215 364.112 13.3775 363.486 15 363.486C16.6225 363.486 18.1785 364.112 19.3258 365.226C20.4731 366.341 21.1176 367.852 21.1176 369.429Z" fill="black"/>
<path d="M19.9706 378.343C19.8892 378.325 19.804 378.334 19.7289 378.37C19.6539 378.405 19.5935 378.464 19.5576 378.537L16.5294 386.939V384.286L16.0897 381.299C16.2301 381.27 16.3593 381.203 16.4626 381.107C16.5659 381.01 16.6392 380.887 16.6739 380.752L17.0563 379.266C17.0845 379.157 17.0867 379.042 17.0627 378.932C17.0386 378.822 16.989 378.718 16.9176 378.629C16.8462 378.54 16.7548 378.468 16.6505 378.418C16.5461 378.369 16.4315 378.343 16.3153 378.343H13.6862C13.5701 378.343 13.4555 378.369 13.3511 378.418C13.2467 378.468 13.1553 378.54 13.0838 378.628C13.0123 378.717 12.9626 378.821 12.9384 378.931C12.9143 379.042 12.9164 379.156 12.9445 379.265L13.3268 380.751C13.3615 380.887 13.4347 381.01 13.538 381.106C13.6413 381.203 13.7706 381.27 13.9111 381.299L13.4706 384.286V386.288L10.4424 378.537C10.4065 378.464 10.3461 378.405 10.2711 378.37C10.196 378.334 10.1108 378.325 10.0294 378.343C9.73708 378.411 9.44445 378.479 9.15153 378.545C7.42176 378.939 5.28365 379.424 4.14729 380.149C2.79912 381.009 2 382.022 2 383.171V388H28V383.171C28 382.022 27.2009 381.01 25.8527 380.149C24.7164 379.424 22.5782 378.939 20.8485 378.545C20.5403 378.475 20.2444 378.408 19.9706 378.343Z" fill="black"/>
<path d="M57.316 366.211L45.3161 362.053C45.1109 361.982 44.8889 361.982 44.6836 362.053L32.6837 366.211C32.4846 366.28 32.3114 366.413 32.1887 366.59C32.066 366.767 32 366.979 32 367.198V377.593C32 377.868 32.1054 378.133 32.2929 378.328C32.4804 378.523 32.7348 378.632 33 378.632C33.2652 378.632 33.5196 378.523 33.7071 378.328C33.8946 378.133 34 377.868 34 377.593V368.64L38.1987 370.094C37.0832 371.967 36.7284 374.224 37.2124 376.369C37.6963 378.515 38.9794 380.372 40.7799 381.535C38.5299 382.452 36.585 384.112 35.1625 386.38C35.0885 386.495 35.0371 386.623 35.0113 386.758C34.9855 386.893 34.9858 387.032 35.0122 387.167C35.0385 387.302 35.0904 387.431 35.1649 387.545C35.2393 387.658 35.3348 387.756 35.4458 387.831C35.5568 387.906 35.6811 387.958 35.8115 387.983C35.9418 388.008 36.0756 388.005 36.2051 387.976C36.3346 387.947 36.4572 387.891 36.5657 387.812C36.6743 387.733 36.7667 387.632 36.8375 387.516C38.7212 384.512 41.6962 382.79 44.9999 382.79C48.3036 382.79 51.2786 384.512 53.1623 387.516C53.309 387.742 53.5356 387.9 53.793 387.954C54.0505 388.009 54.3182 387.955 54.5383 387.806C54.7584 387.657 54.9131 387.424 54.969 387.157C55.025 386.89 54.9777 386.611 54.8373 386.38C53.4148 384.112 51.4623 382.452 49.2199 381.535C51.0186 380.372 52.3005 378.516 52.7844 376.372C53.2683 374.229 52.9146 371.973 51.8011 370.1L57.316 368.19C57.5152 368.121 57.6884 367.989 57.8112 367.812C57.9339 367.635 58 367.422 58 367.204C58 366.986 57.9339 366.773 57.8112 366.596C57.6884 366.419 57.5152 366.287 57.316 366.218V366.211ZM50.9998 374.474C51.0001 375.46 50.7755 376.432 50.3444 377.31C49.9133 378.189 49.288 378.948 48.5198 379.527C47.7516 380.105 46.8624 380.486 45.9252 380.638C44.988 380.79 44.0294 380.709 43.1282 380.402C42.227 380.094 41.4088 379.569 40.7407 378.869C40.0726 378.169 39.5736 377.314 39.2848 376.375C38.996 375.436 38.9255 374.439 39.0792 373.466C39.2328 372.493 39.6062 371.571 40.1687 370.777L44.6836 372.337C44.8889 372.408 45.1109 372.408 45.3161 372.337L49.8311 370.777C50.5907 371.848 51.0004 373.144 50.9998 374.474Z" fill="black"/>
<g clip-path="url(#clip2_2_3)">
<path d="M24.9531 394.031H23.7344V392H21.7031V394.031H8.29688V392H6.26562V394.031H5.04688C3.36683 394.031 2 395.398 2 397.078V414.953C2 416.633 3.36683 418 5.04688 418H24.9531C26.6332 418 28 416.633 28 414.953V397.078C28 395.398 26.6332 394.031 24.9531 394.031ZM25.9688 414.953C25.9688 415.513 25.5131 415.969 24.9531 415.969H5.04688C4.48686 415.969 4.03125 415.513 4.03125 414.953V401.547H25.9688V414.953ZM25.9688 399.516H4.03125V397.078C4.03125 396.518 4.48686 396.062 5.04688 396.062H6.26562V398.094H8.29688V396.062H21.7031V398.094H23.7344V396.062H24.9531C25.5131 396.062 25.9688 396.518 25.9688 397.078V399.516Z" fill="black"/>
<path d="M7.89062 403.68H5.85938V405.711H7.89062V403.68Z" fill="black"/>
<path d="M11.9531 403.68H9.92188V405.711H11.9531V403.68Z" fill="black"/>
<path d="M16.0156 403.68H13.9844V405.711H16.0156V403.68Z" fill="black"/>
<path d="M20.0781 403.68H18.0469V405.711H20.0781V403.68Z" fill="black"/>
<path d="M24.1406 403.68H22.1094V405.711H24.1406V403.68Z" fill="black"/>
<path d="M7.89062 407.742H5.85938V409.773H7.89062V407.742Z" fill="black"/>
<path d="M11.9531 407.742H9.92188V409.773H11.9531V407.742Z" fill="black"/>
<path d="M16.0156 407.742H13.9844V409.773H16.0156V407.742Z" fill="black"/>
<path d="M20.0781 407.742H18.0469V409.773H20.0781V407.742Z" fill="black"/>
<path d="M7.89062 411.805H5.85938V413.836H7.89062V411.805Z" fill="black"/>
<path d="M11.9531 411.805H9.92188V413.836H11.9531V411.805Z" fill="black"/>
<path d="M16.0156 411.805H13.9844V413.836H16.0156V411.805Z" fill="black"/>
<path d="M20.0781 411.805H18.0469V413.836H20.0781V411.805Z" fill="black"/>
<path d="M24.1406 407.742H22.1094V409.773H24.1406V407.742Z" fill="black"/>
</g>
<path d="M35.64 402.4L38.11 399.93C38.3483 399.692 38.4675 399.388 38.4675 399.02C38.4675 398.652 38.3483 398.348 38.11 398.11C37.8717 397.872 37.5683 397.752 37.2 397.752C36.8317 397.752 36.5283 397.872 36.29 398.11L32.91 401.49C32.65 401.75 32.52 402.053 32.52 402.4C32.52 402.747 32.65 403.05 32.91 403.31L36.29 406.69C36.5283 406.928 36.8317 407.047 37.2 407.047C37.5683 407.047 37.8717 406.928 38.11 406.69C38.3483 406.452 38.4675 406.148 38.4675 405.78C38.4675 405.412 38.3483 405.108 38.11 404.87L35.64 402.4ZM54.36 402.4L51.89 404.87C51.6517 405.108 51.5325 405.412 51.5325 405.78C51.5325 406.148 51.6517 406.452 51.89 406.69C52.1283 406.928 52.4317 407.047 52.8 407.047C53.1683 407.047 53.4717 406.928 53.71 406.69L57.09 403.31C57.35 403.05 57.48 402.747 57.48 402.4C57.48 402.053 57.35 401.75 57.09 401.49L53.71 398.11C53.4717 397.872 53.1683 397.752 52.8 397.752C52.4317 397.752 52.1283 397.872 51.89 398.11C51.6517 398.348 51.5325 398.652 51.5325 399.02C51.5325 399.388 51.6517 399.692 51.89 399.93L54.36 402.4ZM32 395.9V394.6C32 393.885 32.2548 393.273 32.7644 392.764C33.274 392.256 33.8859 392.001 34.6 392H55.4C56.115 392 56.7273 392.255 57.2369 392.764C57.7465 393.274 58.0008 393.886 58 394.6V395.9C58 396.268 57.8752 396.577 57.6256 396.827C57.376 397.076 57.0674 397.201 56.7 397.2C56.3325 397.199 56.024 397.074 55.7744 396.826C55.5248 396.577 55.4 396.268 55.4 395.9V394.6H34.6V395.9C34.6 396.268 34.4752 396.577 34.2256 396.827C33.976 397.076 33.6675 397.201 33.3 397.2C32.9325 397.199 32.624 397.074 32.3744 396.826C32.1248 396.577 32 396.268 32 395.9ZM41.1 415.4C40.7317 415.4 40.4231 415.275 40.1744 415.026C39.9257 414.776 39.8009 414.467 39.8 414.1V412.8H34.6C33.885 412.8 33.2731 412.546 32.7644 412.037C32.2557 411.528 32.0009 410.916 32 410.2V408.932C32 408.564 32.1248 408.261 32.3744 408.022C32.624 407.784 32.9325 407.665 33.3 407.665C33.6675 407.665 33.9764 407.789 34.2269 408.038C34.4774 408.287 34.6017 408.596 34.6 408.965V410.2H55.4V408.932C55.4 408.564 55.5248 408.261 55.7744 408.022C56.024 407.784 56.3325 407.665 56.7 407.665C57.0674 407.665 57.3764 407.789 57.6269 408.038C57.8773 408.287 58.0017 408.596 58 408.965V410.2C58 410.915 57.7456 411.527 57.2369 412.037C56.7281 412.546 56.1159 412.801 55.4 412.8H50.2V414.1C50.2 414.468 50.0752 414.777 49.8256 415.027C49.576 415.276 49.2675 415.401 48.9 415.4H41.1Z" fill="black"/>
<path d="M15.8671 436.893V433.108C16.4454 432.903 16.9327 432.501 17.243 431.972C17.5534 431.443 17.6667 430.821 17.563 430.217C17.4593 429.612 17.1452 429.064 16.6763 428.669C16.2074 428.273 15.6138 428.056 15.0004 428.056C14.3871 428.056 13.7935 428.273 13.3246 428.669C12.8557 429.064 12.5416 429.612 12.4379 430.217C12.3342 430.821 12.4475 431.443 12.7578 431.972C13.0682 432.501 13.5555 432.903 14.1338 433.108V436.894C13.5555 437.099 13.0682 437.501 12.7578 438.03C12.4475 438.559 12.3342 439.181 12.4379 439.785C12.5416 440.39 12.8557 440.938 13.3246 441.333C13.7935 441.729 14.3871 441.945 15.0004 441.945C15.6138 441.945 16.2074 441.729 16.6763 441.333C17.1452 440.938 17.4593 440.39 17.563 439.785C17.6667 439.181 17.5534 438.559 17.243 438.03C16.9327 437.501 16.4454 437.098 15.8671 436.893ZM15.0004 429.801C15.1719 429.801 15.3394 429.851 15.4819 429.947C15.6245 430.042 15.7355 430.177 15.8011 430.336C15.8667 430.494 15.8839 430.668 15.8505 430.836C15.817 431.004 15.7345 431.159 15.6133 431.28C15.4921 431.401 15.3376 431.484 15.1695 431.517C15.0014 431.551 14.8271 431.533 14.6688 431.468C14.5104 431.402 14.3751 431.291 14.2798 431.149C14.1846 431.006 14.1338 430.839 14.1338 430.667C14.1338 430.437 14.2251 430.217 14.3876 430.054C14.5502 429.892 14.7706 429.801 15.0004 429.801ZM15.0004 440.201C14.829 440.201 14.6615 440.15 14.519 440.054C14.3764 439.959 14.2653 439.824 14.1998 439.665C14.1342 439.507 14.117 439.333 14.1504 439.165C14.1839 438.997 14.2664 438.842 14.3876 438.721C14.5088 438.6 14.6633 438.517 14.8314 438.484C14.9995 438.45 15.1737 438.468 15.3321 438.533C15.4905 438.599 15.6258 438.71 15.721 438.852C15.8163 438.995 15.8671 439.162 15.8671 439.334C15.8671 439.564 15.7758 439.784 15.6133 439.947C15.4507 440.109 15.2303 440.201 15.0004 440.201Z" fill="black"/>
<path d="M27.4925 436.226C27.8175 435.901 28 435.46 28 435C28 434.541 27.8175 434.1 27.4925 433.775L22.4771 428.76L24.9905 426.279C25.3612 426.372 25.752 426.339 26.1022 426.186C26.4525 426.034 26.7427 425.77 26.9276 425.436C27.1126 425.101 27.1821 424.716 27.1254 424.338C27.0686 423.96 26.8888 423.611 26.6137 423.346C26.3386 423.081 25.9838 422.914 25.6041 422.871C25.2245 422.829 24.8414 422.912 24.5142 423.109C24.1869 423.307 23.9339 423.606 23.7944 423.962C23.6549 424.317 23.6366 424.709 23.7425 425.076L21.2517 427.534L16.2259 422.507C15.9008 422.183 15.46 422 15.0004 422C14.5408 422 14.1 422.183 13.775 422.507L8.7596 427.525L6.27921 425.01C6.37102 424.639 6.33789 424.248 6.18496 423.898C6.03204 423.548 5.76787 423.258 5.43343 423.074C5.09899 422.889 4.71299 422.82 4.33529 422.877C3.9576 422.934 3.60933 423.114 3.34452 423.39C3.07971 423.665 2.91315 424.02 2.8707 424.4C2.82824 424.779 2.91225 425.162 3.10971 425.489C3.30716 425.816 3.60701 426.069 3.96274 426.208C4.31847 426.348 4.7102 426.365 5.07715 426.259L7.53414 428.749L2.50749 433.775C2.18255 434.1 2 434.541 2 435C2 435.46 2.18255 435.901 2.50749 436.226L7.53414 441.252L5.07715 443.742C4.71097 443.636 4.32023 443.654 3.96549 443.794C3.61075 443.933 3.31182 444.185 3.11504 444.511C2.91826 444.838 2.83462 445.22 2.87708 445.599C2.91954 445.977 3.08574 446.331 3.3499 446.606C3.61407 446.881 3.96145 447.061 4.3382 447.118C4.71495 447.175 5.10004 447.106 5.43376 446.922C5.76749 446.738 6.03122 446.449 6.18407 446.1C6.33692 445.751 6.37036 445.361 6.27921 444.991L8.7596 442.478L13.775 447.493C14.1 447.818 14.5408 448 15.0004 448C15.46 448 15.9008 447.818 16.2259 447.493L21.2525 442.467L23.7416 444.925C23.6361 445.291 23.6544 445.682 23.7936 446.036C23.9327 446.391 24.185 446.69 24.5114 446.887C24.8377 447.084 25.2198 447.167 25.5985 447.125C25.9772 447.082 26.3313 446.916 26.6059 446.652C26.8806 446.388 27.0604 446.04 27.1175 445.664C27.1747 445.287 27.106 444.902 26.922 444.568C26.7381 444.234 26.4492 443.971 26.1001 443.818C25.7511 443.665 25.3613 443.631 24.9913 443.723L22.478 441.241L27.4925 436.226ZM15.0004 446.267L3.73382 435L15.0004 423.734L26.267 435L15.0004 446.267Z" fill="black"/>
<path d="M32 445.111C32 445.877 32.3044 446.612 32.8461 447.154C33.3879 447.696 34.1227 448 34.8889 448C35.6551 448 36.3899 447.696 36.9316 447.154C37.4734 446.612 37.7778 445.877 37.7778 445.111C37.7778 444.345 37.4734 443.61 36.9316 443.068C36.3899 442.527 35.6551 442.222 34.8889 442.222C34.1227 442.222 33.3879 442.527 32.8461 443.068C32.3044 443.61 32 444.345 32 445.111Z" stroke="black" stroke-width="2" stroke-linecap="round" stroke-linejoin="round"/>
<path d="M42.8333 442.222H34.8889V422H32" stroke="black" stroke-width="2" stroke-linecap="round" stroke-linejoin="round"/>
<path d="M34.8889 424.889L55.1111 426.333L53.6667 436.444H34.8889M55.1111 448L58 445.111L55.1111 442.222M50.7778 442.222L47.8889 445.111L50.7778 448" stroke="black" stroke-width="2" stroke-linecap="round" stroke-linejoin="round"/>
<path d="M15 457C11.5333 457 9.36734 458.733 8.5 462.199C9.79959 460.466 11.3167 459.817 13.0496 460.25C14.039 460.496 14.7461 461.214 15.5291 462.009C16.8035 463.302 18.2786 464.799 21.5 464.799C24.9665 464.799 27.1327 463.067 28 459.599C26.7 461.333 25.1834 461.983 23.4502 461.549C22.461 461.303 21.7547 460.585 20.9707 459.79C19.6971 458.497 18.2224 457 15 457ZM8.5 464.799C5.03347 464.799 2.86734 466.532 2 470C3.29986 468.266 4.8164 467.616 6.54959 468.049C7.53902 468.296 8.24609 469.013 9.02914 469.809C10.3035 471.102 11.7786 472.599 15 472.599C18.4665 472.599 20.6327 470.866 21.5 467.4C20.2 469.133 18.6834 469.782 16.9502 469.349C15.961 469.102 15.2547 468.385 14.4707 467.59C13.1971 466.297 11.7224 464.799 8.5 464.799Z" fill="#38BDF8"/>
<path d="M32.2474 461.067C32.2474 461.067 31.6141 460.605 32.3741 459.989L34.1445 458.389C34.1445 458.389 34.6511 457.85 35.1867 458.319L51.525 470.823V476.819C51.525 476.819 51.5171 477.76 50.3217 477.656L32.2474 461.067Z" fill="#2489CA"/>
<path d="M36.4586 464.931L32.2474 468.801C32.2474 468.801 31.8146 469.127 32.2474 469.708L34.2025 471.506C34.2025 471.506 34.6669 472.01 35.353 471.436L39.8175 468.014L36.4586 464.931Z" fill="#1070B3"/>
<path d="M43.8519 464.963L51.5751 459.002L51.525 453.039C51.525 453.039 51.1951 451.737 50.0948 452.414L39.8175 461.869L43.8519 464.963Z" fill="#0877B9"/>
<path d="M50.3217 477.664C50.7703 478.128 51.3139 477.976 51.3139 477.976L57.3326 474.978C58.103 474.448 57.9948 473.789 57.9948 473.789V455.887C57.9948 455.1 57.1979 454.828 57.1979 454.828L51.9815 452.286C50.8416 451.574 50.0948 452.414 50.0948 452.414C50.0948 452.414 51.0552 451.716 51.525 453.039V476.709C51.5256 476.871 51.4904 477.03 51.4221 477.176C51.2849 477.456 50.9867 477.717 50.2717 477.608L50.3217 477.664Z" fill="#3C99D4"/>
<path d="M11.4519 487.544C12.7052 487.544 13.9073 488.042 14.7936 488.929C15.6799 489.815 16.1778 491.017 16.1778 492.27C16.1778 493.524 15.6799 494.726 14.7936 495.612C13.9073 496.498 12.7052 496.996 11.4519 496.996C10.1985 496.996 8.9964 496.498 8.11012 495.612C7.22384 494.726 6.72593 493.524 6.72593 492.27C6.72593 491.017 7.22384 489.815 8.11012 488.929C8.9964 488.042 10.1985 487.544 11.4519 487.544ZM11.4519 499.359C14.6064 499.359 20.9037 500.942 20.9037 504.085V506.448H2V504.085C2 500.942 8.2973 499.359 11.4519 499.359ZM20.6202 487.97C23.0067 490.569 23.0067 494.173 20.6202 496.559L18.6353 494.562C19.6277 493.168 19.6277 491.361 18.6353 489.966L20.6202 487.97ZM24.5309 484C29.1741 488.785 29.1386 495.945 24.5309 500.541L22.605 498.615C25.8778 494.858 25.8778 489.494 22.605 485.926L24.5309 484Z" fill="black"/>
<defs>
<clipPath id="clip0_2_3">
<rect width="26" height="26" fill="white" transform="translate(2 242)"/>
</clipPath>
<clipPath id="clip1_2_3">
<rect width="26" height="26" fill="white" transform="translate(2 272)"/>
</clipPath>
<clipPath id="clip2_2_3">
<rect width="26" height="26" fill="white" transform="translate(2 392)"/>
</clipPath>
</defs>
</svg>
