<svg width="793" height="200" viewBox="0 0 793 200" fill="none" xmlns="http://www.w3.org/2000/svg">
    <g clip-path="url(#clip0_746_1004)">
        <path d="M24.343 103.62H6V1.00781H24.024L24.343 103.62Z" fill="#fff"/>
        <path d="M163.536 103.62H145.052V43.3721L112.529 100.587C111.729 102.045 110.612 103.15 109.178 103.902C107.742 104.654 106.203 105.031 104.557 105.031C102.958 105.031 101.464 104.654 100.077 103.902C98.689 103.15 97.596 102.045 96.797 100.587L64.133 43.3721V103.62H45.791V10.2851C45.791 8.16807 46.414 6.28806 47.66 4.64106C48.906 2.99506 50.54 1.89006 52.563 1.32506C53.551 1.09106 54.538 1.00807 55.526 1.07807C56.514 1.14807 57.466 1.36006 58.383 1.71306C59.3 2.06606 60.134 2.56006 60.887 3.19406C61.638 3.82906 62.274 4.59406 62.792 5.48706L104.557 78.0821L146.322 5.48706C147.403 3.70006 148.897 2.43007 150.801 1.67707C152.706 0.925067 154.693 0.807062 156.763 1.32406C158.738 1.88806 160.361 2.99406 161.631 4.64006C162.901 6.28706 163.536 8.16706 163.536 10.2841V103.62Z" fill="#fff"/>
        <path d="M302.588 103.62H284.104V43.3721L251.582 100.587C250.782 102.045 249.665 103.15 248.231 103.902C246.795 104.654 245.255 105.031 243.609 105.031C242.01 105.031 240.516 104.654 239.129 103.902C237.741 103.15 236.648 102.045 235.849 100.587L203.185 43.3721V103.62H184.843V10.2851C184.843 8.16807 185.466 6.28806 186.713 4.64106C187.959 2.99506 189.593 1.89006 191.616 1.32506C192.604 1.09106 193.591 1.00807 194.579 1.07807C195.567 1.14807 196.519 1.36006 197.436 1.71306C198.353 2.06606 199.187 2.56006 199.94 3.19406C200.691 3.82906 201.327 4.59406 201.845 5.48706L243.61 78.0821L285.375 5.48706C286.457 3.70006 287.95 2.43007 289.855 1.67707C291.76 0.925067 293.746 0.807062 295.816 1.32406C297.791 1.88806 299.414 2.99406 300.684 4.64006C301.954 6.28706 302.589 8.16706 302.589 10.2841L302.588 103.62Z" fill="#fff"/>
        <path d="M430.069 62.7019C430.069 68.8639 429.009 74.5309 426.894 79.7049C424.778 84.8789 421.836 89.3479 418.076 93.1069C414.312 96.8719 409.857 99.7979 404.707 101.892C399.557 103.984 393.948 105.031 387.881 105.031H363.048C356.982 105.031 351.36 103.984 346.187 101.892C341.013 99.7979 336.545 96.8709 332.783 93.1069C329.019 89.3449 326.069 84.8779 323.929 79.7049C321.788 74.5309 320.719 68.8639 320.719 62.7019V43.3719C320.719 37.2579 321.788 31.6019 323.929 26.4049C326.069 21.2089 329.019 16.7399 332.783 13.0009C336.545 9.26195 341.013 6.33395 346.187 4.21795C351.36 2.10094 356.981 1.04395 363.048 1.04395H387.881C393.948 1.04395 399.557 2.10195 404.707 4.21795C409.857 6.33395 414.312 9.26195 418.076 13.0009C421.838 16.7399 424.778 21.2089 426.894 26.4049C429.009 31.6029 430.069 37.2589 430.069 43.3719V62.7019ZM411.727 43.3719C411.727 39.7499 411.152 36.4699 409.998 33.5299C408.844 30.5899 407.223 28.0739 405.13 25.9809C403.037 23.8889 400.522 22.2659 397.582 21.1129C394.642 19.9609 391.409 19.3839 387.881 19.3839H363.048C359.473 19.3839 356.216 19.9609 353.277 21.1129C350.337 22.2659 347.81 23.8889 345.694 25.9809C343.577 28.0739 341.943 30.5909 340.79 33.5299C339.638 36.4689 339.062 39.7499 339.062 43.3719V62.7019C339.062 66.3239 339.638 69.6049 340.79 72.5439C341.942 75.4829 343.577 77.9999 345.694 80.0929C347.81 82.1859 350.338 83.8089 353.277 84.9609C356.215 86.1129 359.472 86.6899 363.048 86.6899H387.74C391.312 86.6899 394.571 86.1149 397.511 84.9609C400.449 83.8089 402.978 82.1859 405.095 80.0929C407.21 77.9999 408.844 75.4839 409.997 72.5439C411.149 69.6059 411.726 66.3239 411.726 62.7019L411.727 43.3719Z" fill="#fff"/>
        <path d="M549.297 36.4581C549.297 40.6451 548.779 44.3841 547.745 47.6761C546.71 50.9681 545.309 53.8731 543.547 56.3891C541.783 58.9051 539.748 61.0571 537.445 62.8441C535.138 64.6311 532.728 66.1011 530.214 67.2531C527.697 68.4051 525.157 69.2401 522.595 69.7571C520.032 70.2761 517.62 70.5331 515.365 70.5331L553.673 103.62H525.31L487.075 70.5331H473.883V52.1901H515.365C517.669 52.0021 519.774 51.5201 521.678 50.7441C523.583 49.9681 525.229 48.9221 526.616 47.6041C528.003 46.2881 529.073 44.7011 529.826 42.8421C530.577 40.9851 530.955 38.8561 530.955 36.4571V24.8871C530.955 23.8531 530.825 23.0651 530.567 22.5241C530.307 21.9841 529.977 21.5841 529.579 21.3241C529.18 21.0661 528.757 20.9131 528.308 20.8661C527.862 20.8201 527.451 20.7961 527.075 20.7961H466.544V103.62H448.2V11.6951C448.2 10.4251 448.434 9.22613 448.905 8.09713C449.376 6.96813 450.021 5.98012 450.844 5.13412C451.666 4.28812 452.644 3.63012 453.773 3.15912C454.902 2.68912 456.125 2.45312 457.442 2.45312H527.074C531.166 2.45312 534.623 3.19413 537.445 4.67513C540.265 6.15713 542.558 8.01513 544.322 10.2481C546.087 12.4821 547.356 14.8941 548.133 17.4791C548.909 20.0661 549.297 22.4881 549.297 24.7461V36.4581Z" fill="#fff"/>
        <path d="M666.973 103.62H648.629V78.7871H584.15V103.62H565.805V53.0371C565.805 45.6531 567.076 38.8571 569.617 32.6481C572.156 26.4401 575.683 21.1021 580.2 16.6331C584.715 12.1661 590.052 8.68512 596.214 6.19212C602.375 3.70012 609.101 2.45312 616.391 2.45312H657.734C659.004 2.45312 660.203 2.68912 661.332 3.15912C662.461 3.63012 663.449 4.28812 664.295 5.13412C665.142 5.98112 665.801 6.96813 666.272 8.09713C666.742 9.22513 666.977 10.4251 666.977 11.6951V103.62H666.973ZM584.148 60.4441H648.627V20.7961H616.387C615.824 20.7961 614.635 20.8791 612.824 21.0431C611.012 21.2081 608.92 21.6191 606.545 22.2771C604.17 22.9371 601.665 23.9471 599.032 25.3111C596.397 26.6761 593.974 28.5561 591.764 30.9551C589.553 33.3531 587.732 36.3511 586.296 39.9501C584.861 43.5491 584.145 47.9111 584.145 53.0371V60.4441H584.148Z" fill="#fff"/>
        <path d="M781.19 103.62H697.52C696.204 103.62 694.981 103.386 693.851 102.915C692.722 102.445 691.747 101.798 690.923 100.975C690.1 100.153 689.453 99.1761 688.984 98.0471C688.513 96.9181 688.279 95.6951 688.279 94.3781V2.4541H706.622V85.2771H781.192L781.19 103.62Z" fill="#fff"/>
        <path d="M565.254 193.69C565.254 194.445 565.079 195.152 564.729 195.808C564.376 196.466 563.908 197.041 563.323 197.531C562.736 198.02 562.05 198.405 561.262 198.685C560.474 198.964 559.648 199.104 558.778 199.104C557.874 199.104 557.028 198.964 556.242 198.685C555.455 198.405 554.767 198.02 554.182 197.531C553.595 197.041 553.135 196.468 552.801 195.808C552.465 195.152 552.298 194.445 552.298 193.69C552.298 192.962 552.465 192.27 552.801 191.613C553.135 190.957 553.595 190.382 554.182 189.892C554.767 189.402 555.453 189.01 556.242 188.717C557.028 188.423 557.874 188.278 558.778 188.278C559.648 188.278 560.475 188.425 561.262 188.717C562.048 189.012 562.736 189.402 563.323 189.892C563.908 190.382 564.378 190.954 564.729 191.613C565.079 192.27 565.254 192.962 565.254 193.69Z" fill="#99343E"/>
        <path d="M635.008 183.87C635.008 185.745 634.723 187.431 634.154 188.928C633.585 190.424 632.832 191.738 631.893 192.873C630.955 194.004 629.869 194.971 628.629 195.768C627.389 196.565 626.093 197.216 624.737 197.719C623.381 198.223 622.008 198.594 620.619 198.832C619.229 199.07 617.915 199.188 616.677 199.188H593.125C590.881 199.188 588.873 198.951 587.099 198.475C585.325 198 583.759 197.363 582.405 196.566C581.049 195.769 579.893 194.853 578.939 193.818C577.986 192.783 577.207 191.699 576.603 190.566C576 189.432 575.557 188.285 575.273 187.124C574.989 185.963 574.846 184.878 574.846 183.871V169.1C574.846 166.302 575.456 163.931 576.679 161.985C577.902 160.042 579.423 158.461 581.248 157.244C583.072 156.026 585.056 155.153 587.199 154.621C589.341 154.089 591.315 153.823 593.125 153.823H616.677V164.735H593.225C591.486 164.735 590.162 165.105 589.258 165.847C588.354 166.589 587.904 167.673 587.904 169.1V183.787C587.904 185.268 588.346 186.388 589.234 187.144C590.121 187.899 591.419 188.277 593.127 188.277H616.679C618.453 188.277 619.777 187.899 620.647 187.144C621.517 186.389 621.954 185.298 621.954 183.871V134.648H635.011V183.871H635.008V183.87Z" fill="#99343E"/>
        <path d="M705.865 168.846C705.865 170.357 705.547 171.988 704.911 173.736C704.274 175.486 703.245 177.107 701.822 178.603C700.399 180.1 698.541 181.352 696.248 182.359C693.955 183.365 691.168 183.87 687.887 183.87H664.335V173.506H687.887C689.661 173.506 691.033 173.051 692.005 172.142C692.976 171.232 693.461 170.106 693.461 168.763C693.461 167.337 692.917 166.218 691.829 165.406C690.741 164.594 689.427 164.189 687.887 164.189H664.335C662.56 164.189 661.188 164.644 660.217 165.553C659.245 166.463 658.761 167.588 658.761 168.931V184.164C658.761 185.619 659.305 186.753 660.393 187.563C661.482 188.375 662.83 188.78 664.436 188.78H687.887V199.187H664.335C662.527 199.187 660.576 198.923 658.484 198.39C656.39 197.858 654.45 196.998 652.659 195.808C650.868 194.62 649.37 193.068 648.165 191.15C646.959 189.235 646.355 186.907 646.355 184.164V168.848C646.355 167.337 646.673 165.708 647.309 163.958C647.946 162.21 648.974 160.588 650.398 159.091C651.822 157.595 653.678 156.343 655.972 155.336C658.265 154.329 661.052 153.824 664.333 153.824H687.885C689.695 153.824 691.643 154.09 693.737 154.622C695.829 155.153 697.77 156.013 699.561 157.202C701.352 158.393 702.85 159.944 704.056 161.86C705.263 163.777 705.865 166.106 705.865 168.846Z" fill="#99343E"/>
        <path d="M779.435 153.824C777.961 157.658 776.238 161.434 774.262 165.155C772.286 168.876 770.02 172.422 767.457 175.792C764.896 179.163 762.033 182.284 758.87 185.15C755.706 188.019 752.207 190.495 748.374 192.578C744.541 194.662 740.372 196.299 735.87 197.487C731.367 198.678 726.487 199.272 721.231 199.272C720.327 199.272 719.472 199.132 718.668 198.853C717.865 198.572 717.162 198.188 716.561 197.697C715.957 197.208 715.489 196.635 715.155 195.976C714.82 195.319 714.653 194.612 714.653 193.857V153.824H727.71V187.941C730.89 187.941 733.944 187.367 736.874 186.219C739.804 185.072 742.574 183.555 745.187 181.667C747.798 179.778 750.215 177.632 752.444 175.225C754.67 172.819 756.653 170.351 758.394 167.819C760.133 165.289 761.616 162.804 762.837 160.37C764.059 157.937 764.972 155.756 765.574 153.824H779.435Z" fill="#99343E"/>
        <g opacity="0.75">
            <path d="M34.7241 103.62H16.3811V1.00781H34.7241V103.62Z" stroke="#99343E" stroke-width="2.5" stroke-miterlimit="10"/>
            <path d="M173.917 103.62H155.433V43.3716L122.911 100.587C122.111 102.045 120.994 103.15 119.56 103.902C118.124 104.654 116.584 105.031 114.939 105.031C113.339 105.031 111.846 104.654 110.459 103.902C109.071 103.15 107.978 102.045 107.179 100.587L74.5141 43.3716V103.62H56.1721V10.2846C56.1721 8.16758 56.7951 6.28757 58.0421 4.64057C59.2881 2.99457 60.9221 1.88957 62.9451 1.32457C63.9331 1.09057 64.9211 1.00758 65.9081 1.07758C66.8961 1.14758 67.8481 1.35957 68.7651 1.71257C69.6821 2.06557 70.5161 2.55957 71.2691 3.19357C72.0211 3.82857 72.6561 4.59357 73.1741 5.48657L114.939 78.0816L156.704 5.48657C157.786 3.69957 159.279 2.42958 161.184 1.67658C163.089 0.924579 165.075 0.806574 167.145 1.32357C169.12 1.88757 170.743 2.99357 172.013 4.63957C173.283 6.28657 173.917 8.16657 173.917 10.2836V103.62Z" stroke="#99343E" stroke-width="2.5" stroke-miterlimit="10"/>
            <path d="M312.969 103.62H294.485V43.3716L261.963 100.587C261.163 102.045 260.046 103.15 258.612 103.902C257.176 104.654 255.637 105.031 253.991 105.031C252.391 105.031 250.898 104.654 249.511 103.902C248.123 103.15 247.03 102.045 246.231 100.587L213.567 43.3716V103.62H195.224V10.2846C195.224 8.16758 195.847 6.28757 197.094 4.64057C198.34 2.99457 199.974 1.88957 201.997 1.32457C202.984 1.09057 203.972 1.00758 204.959 1.07758C205.947 1.14758 206.899 1.35957 207.817 1.71257C208.734 2.06557 209.568 2.55957 210.321 3.19357C211.072 3.82857 211.708 4.59357 212.225 5.48657L253.99 78.0816L295.755 5.48657C296.837 3.69957 298.33 2.42958 300.235 1.67658C302.14 0.924579 304.126 0.806574 306.196 1.32357C308.171 1.88757 309.794 2.99357 311.064 4.63957C312.334 6.28657 312.969 8.16657 312.969 10.2836V103.62Z" stroke="#99343E" stroke-width="2.5" stroke-miterlimit="10"/>
            <path d="M440.45 62.7019C440.45 68.8649 439.39 74.5309 437.275 79.7049C435.158 84.8789 432.217 89.3479 428.457 93.1069C424.693 96.8719 420.238 99.7979 415.088 101.892C409.939 103.984 404.329 105.031 398.262 105.031H373.429C367.363 105.031 361.741 103.984 356.569 101.892C351.395 99.7979 346.927 96.8709 343.165 93.1069C339.402 89.3449 336.451 84.8779 334.311 79.7049C332.17 74.5309 331.101 68.8649 331.101 62.7019V43.3719C331.101 37.2579 332.17 31.6019 334.311 26.4049C336.45 21.2089 339.401 16.7399 343.165 13.0009C346.927 9.26195 351.395 6.33395 356.569 4.21795C361.742 2.10094 367.363 1.04395 373.429 1.04395H398.262C404.329 1.04395 409.939 2.10195 415.088 4.21795C420.238 6.33395 424.693 9.26195 428.457 13.0009C432.219 16.7399 435.158 21.2089 437.275 26.4049C439.39 31.6029 440.45 37.2589 440.45 43.3719V62.7019ZM422.107 43.3719C422.107 39.7499 421.531 36.4699 420.378 33.5299C419.225 30.5899 417.604 28.0739 415.51 25.9809C413.417 23.8889 410.901 22.2659 407.961 21.1129C405.022 19.9609 401.789 19.3839 398.261 19.3839H373.428C369.853 19.3839 366.596 19.9609 363.657 21.1129C360.717 22.2659 358.189 23.8889 356.073 25.9809C353.956 28.0739 352.322 30.5909 351.17 33.5299C350.017 36.4689 349.441 39.7499 349.441 43.3719V62.7019C349.441 66.3239 350.017 69.6049 351.17 72.5439C352.322 75.4829 353.957 77.9999 356.073 80.0929C358.189 82.1859 360.717 83.8089 363.657 84.9609C366.595 86.1129 369.852 86.6899 373.428 86.6899H398.12C401.693 86.6899 404.951 86.1149 407.891 84.9609C410.829 83.8089 413.36 82.1859 415.476 80.0929C417.591 77.9999 419.225 75.4839 420.378 72.5439C421.53 69.6059 422.107 66.3239 422.107 62.7019V43.3719Z" stroke="#99343E" stroke-width="2.5" stroke-miterlimit="10"/>
            <path d="M559.678 36.4576C559.678 40.6446 559.159 44.3836 558.125 47.6756C557.091 50.9676 555.691 53.8726 553.928 56.3886C552.165 58.9046 550.129 61.0566 547.825 62.8436C545.519 64.6306 543.109 66.1006 540.594 67.2526C538.077 68.4056 535.537 69.2396 532.975 69.7566C530.412 70.2756 528.001 70.5326 525.745 70.5326L564.054 103.62H535.69L497.454 70.5326H484.261V52.1896H525.743C528.047 52.0016 530.152 51.5196 532.056 50.7436C533.96 49.9676 535.608 48.9216 536.994 47.6036C538.381 46.2876 539.451 44.7006 540.204 42.8416C540.955 40.9846 541.332 38.8556 541.332 36.4566V24.8866C541.332 23.8526 541.203 23.0646 540.945 22.5236C540.684 21.9836 540.354 21.5836 539.957 21.3236C539.558 21.0656 539.134 20.9126 538.686 20.8656C538.24 20.8196 537.829 20.7956 537.452 20.7956H476.922V103.62H458.58V11.6946C458.58 10.4246 458.814 9.22564 459.285 8.09664C459.756 6.96764 460.402 5.97964 461.224 5.13364C462.046 4.28764 463.024 3.62964 464.153 3.15864C465.282 2.68864 466.505 2.45264 467.822 2.45264H537.453C541.546 2.45264 545.002 3.19364 547.824 4.67464C550.646 6.15664 552.939 8.01464 554.702 10.2476C556.467 12.4816 557.736 14.8936 558.513 17.4786C559.289 20.0656 559.677 22.4876 559.677 24.7456L559.678 36.4576Z" stroke="#99343E" stroke-width="2.5" stroke-miterlimit="10"/>
            <path d="M677.354 103.62H659.01V78.7866H594.53V103.62H576.186V53.0366C576.186 45.6526 577.457 38.8566 579.997 32.6476C582.537 26.4396 586.065 21.1016 590.58 16.6326C595.096 12.1656 600.433 8.68464 606.595 6.19164C612.755 3.69964 619.483 2.45264 626.773 2.45264H668.115C669.385 2.45264 670.584 2.68864 671.713 3.15864C672.842 3.62964 673.829 4.28764 674.676 5.13364C675.524 5.98064 676.181 6.96764 676.653 8.09664C677.123 9.22464 677.358 10.4246 677.358 11.6946V103.62H677.354ZM594.528 60.4436H659.008V20.7956H626.77C626.206 20.7956 625.016 20.8786 623.207 21.0426C621.396 21.2076 619.303 21.6186 616.928 22.2766C614.552 22.9366 612.048 23.9466 609.415 25.3106C606.78 26.6756 604.358 28.5556 602.147 30.9546C599.936 33.3526 598.115 36.3506 596.679 39.9496C595.243 43.5476 594.528 47.9106 594.528 53.0366V60.4436Z" stroke="#99343E" stroke-width="2.5" stroke-miterlimit="10"/>
            <path d="M791.57 103.62H707.9C706.583 103.62 705.36 103.386 704.231 102.915C703.101 102.445 702.126 101.798 701.302 100.975C700.48 100.153 699.832 99.1756 699.363 98.0466C698.892 96.9176 698.658 95.6946 698.658 94.3776V2.45361H717.001V85.2766H791.57V103.62Z" stroke="#99343E" stroke-width="2.5" stroke-miterlimit="10"/>
        </g>
    </g>
    <defs>
        <clipPath id="clip0_746_1004">
            <rect width="793" height="200" fill="white"/>
        </clipPath>
    </defs>
</svg>